<svg width="360" height="219" viewBox="0 0 360 219" fill="none" xmlns="http://www.w3.org/2000/svg">
<rect width="360" height="219" fill="white"/>
<path fill-rule="evenodd" clip-rule="evenodd" d="M58.1471 112.557C57.3261 112.831 56.5067 113.379 55.6857 113.925C54.8647 114.746 54.319 114.746 53.4979 115.02L49.6682 115.294C45.5647 116.115 45.0174 106.808 48.0278 99.1461L51.8575 98.8723C54.8663 99.966 59.7908 100.514 62.5259 100.514C64.9889 99.966 66.0836 98.3246 64.1679 95.588C59.5187 89.0193 62.7995 83.8181 68.8171 83.8181H72.3748C78.1187 83.8181 81.1275 89.0193 76.752 95.3141C74.0152 99.1461 78.1187 100.789 82.4958 100.789C84.6836 100.515 87.145 99.9676 89.608 98.8723H92.6168C95.3519 105.715 94.8062 114.2 91.7958 114.746L88.5133 115.294C87.6923 115.568 86.8713 115.294 85.7766 114.472C84.1362 113.379 82.7679 112.831 81.6732 112.557C79.7575 113.379 78.6644 115.294 78.6644 118.032C78.6644 121.315 80.5785 123.778 83.5889 124.052C84.1346 123.504 84.9556 123.23 85.7766 122.683C86.324 122.135 86.8713 122.135 87.145 121.861L90.1538 121.313C94.8046 120.492 95.8976 135.272 92.8889 143.21L89.6064 144.305C80.5785 147.865 68.8171 146.496 72.9205 140.475C77.024 134.726 74.2873 130.074 69.0908 130.074C66.082 131.714 65.261 135.272 68.2714 139.654C70.1854 142.118 68.8171 143.758 66.6293 144.578L62.5259 145.673H62.2522C58.9698 146.768 52.9522 146.221 48.0294 144.578C45.019 136.641 45.5663 122.681 49.6698 122.133L53.7732 121.312C54.3206 121.312 54.8663 121.586 55.6873 122.133C57.0557 123.229 58.9698 123.502 60.0645 123.502C61.4312 122.681 62.2522 120.764 62.2522 118.578C62.2489 115.569 60.6085 113.105 58.1471 112.557Z" fill="#39613D"/>
<path d="M58.1471 112.557C57.3261 112.831 56.5067 113.379 55.6857 113.925C54.8647 114.746 54.319 114.746 53.4979 115.02L49.6682 115.294C45.5647 116.115 45.0174 106.808 48.0278 99.1461L51.8575 98.8723C54.8663 99.966 59.7908 100.514 62.5259 100.514C64.9889 99.966 66.0836 98.3246 64.1679 95.588C59.5187 89.0193 62.7995 83.8181 68.8171 83.8181H72.3748C78.1187 83.8181 81.1275 89.0193 76.752 95.3141C74.0152 99.1461 78.1187 100.789 82.4958 100.789C84.6836 100.515 87.145 99.9676 89.608 98.8723H92.6168C95.3519 105.715 94.8062 114.2 91.7958 114.746L88.5133 115.294C87.6923 115.568 86.8713 115.294 85.7766 114.472C84.1362 113.379 82.7679 112.831 81.6732 112.557C79.7575 113.379 78.6644 115.294 78.6644 118.032C78.6644 121.315 80.5785 123.778 83.5889 124.052C84.1346 123.504 84.9556 123.23 85.7766 122.683C86.324 122.135 86.8713 122.135 87.145 121.861L90.1538 121.313C94.8046 120.492 95.8976 135.272 92.8889 143.21L89.6064 144.305C80.5785 147.865 68.8171 146.496 72.9205 140.475C77.024 134.726 74.2873 130.074 69.0908 130.074C66.082 131.714 65.261 135.272 68.2714 139.654C70.1854 142.118 68.8171 143.758 66.6293 144.578L62.5259 145.673H62.2522C58.9698 146.768 52.9522 146.221 48.0294 144.578C45.019 136.641 45.5663 122.681 49.6698 122.133L53.7732 121.312C54.3206 121.312 54.8663 121.586 55.6873 122.133C57.0557 123.229 58.9698 123.502 60.0645 123.502C61.4312 122.681 62.2522 120.764 62.2522 118.578C62.2489 115.569 60.6085 113.105 58.1471 112.557Z" stroke="#39613D" stroke-width="0.363153" stroke-miterlimit="2.613"/>
<path fill-rule="evenodd" clip-rule="evenodd" d="M89.6037 98.8723C92.8862 107.905 91.5178 118.58 85.774 114.473C80.0301 110.093 75.1056 113.105 75.1056 118.58C75.1056 123.778 80.0285 126.79 85.774 122.684C91.5178 118.306 92.8862 135.275 89.6037 144.307C80.5758 147.867 68.8144 146.498 72.9179 140.477C77.0213 134.728 74.0109 130.076 68.8144 130.076C63.3442 130.076 60.6091 134.728 64.711 140.75C68.8144 146.496 57.0514 147.865 48.0251 144.581C44.7426 135.549 45.8373 118.582 51.8549 122.684C57.5987 126.792 62.2495 124.053 62.2495 118.58C62.2495 113.105 57.6004 110.367 51.8549 114.473C45.8373 118.851 44.469 108.178 48.0251 99.1461C56.7777 102.43 68.8144 101.883 64.1636 95.588C59.5144 89.0193 62.7952 83.8181 68.8128 83.8181C74.5566 83.8181 77.8407 89.0193 73.1899 95.588C68.5407 101.884 80.5758 102.43 89.6037 98.8723Z" fill="#528555"/>
<path fill-rule="evenodd" clip-rule="evenodd" d="M150.605 92.9026C150.331 90.4397 150.058 88.5229 149.784 85.7862C148.416 85.5124 145.407 84.6925 141.304 84.6925C131.456 84.6925 124.07 91.2612 124.07 100.84C124.07 108.231 128.995 116.167 140.483 116.167C143.765 116.167 147.868 115.071 149.237 114.798C150.058 113.158 150.879 109.324 151.7 107.409L150.879 107.135C148.142 112.063 145.681 115.071 140.484 115.071C133.098 115.071 128.449 108.778 128.449 99.7451C128.449 92.3549 132.279 85.7862 140.484 85.7862C145.135 85.7862 148.144 87.7031 149.784 92.9026H150.605ZM157.719 100.84C157.719 109.6 163.737 116.167 172.489 116.167C181.517 116.167 188.08 109.598 188.08 100.019C188.08 90.9858 181.517 84.6909 173.584 84.6909C162.916 84.6925 157.719 92.9026 157.719 100.84ZM162.094 99.4729C162.094 90.7136 166.744 85.7879 172.215 85.7879C179.054 85.7879 183.705 91.5351 183.705 101.664C183.705 110.423 179.054 115.075 173.584 115.075C166.745 115.073 162.094 108.504 162.094 99.4729ZM220.908 97.5561C220.908 92.9026 221.178 90.1659 221.455 88.7968C222.003 87.1538 223.094 86.3323 225.557 86.0584V85.2386H214.341V86.0584C217.626 86.3323 218.72 87.1538 218.992 88.7968C219.266 90.1643 219.813 92.9026 219.813 97.5561V109.05H219.54L199.842 85.2386H193.278V86.0584C195.194 86.3323 196.289 86.8799 197.384 87.9753C198.201 89.0706 198.201 89.3428 198.201 93.1748V103.302C198.201 107.955 197.931 110.418 197.657 112.063C197.384 113.706 196.015 114.524 193.552 114.798V115.345H204.768V114.798C201.484 114.524 200.389 113.706 200.117 112.063C199.843 110.42 199.296 107.955 199.296 103.302V90.7136H199.57L220.089 115.893H220.91L220.908 97.5561ZM230.755 107.409C231.303 109.872 231.85 113.158 232.124 114.524C232.671 114.524 233.489 115.071 234.583 115.345C235.678 115.619 237.32 116.167 238.962 116.167C244.978 116.167 249.083 112.063 249.083 106.861C249.083 101.388 244.704 99.4713 241.425 97.8283C237.868 96.1869 235.132 94.5439 235.132 90.9858C235.132 88.2491 236.774 85.7862 240.331 85.7862C244.706 85.7862 246.073 89.3444 247.168 92.0811H247.715C247.441 89.0706 247.168 87.4292 246.894 85.7862C245.525 85.5124 244.157 84.6925 241.425 84.6925C235.406 84.6925 232.125 88.5246 232.125 93.178C232.125 98.3776 237.868 100.568 239.51 101.39C242.246 102.757 245.799 104.4 245.799 109.054C245.799 112.887 243.613 114.801 240.057 114.801C235.132 114.801 232.396 109.328 231.578 107.139L230.755 107.409ZM254.827 85.2402V86.0601C258.655 86.6077 258.929 87.1554 258.929 92.0811V103.303C258.929 108.778 260.024 111.79 262.487 113.706C264.676 115.619 267.682 116.167 269.871 116.167C272.881 116.167 276.164 115.071 278.079 112.884C280.813 109.872 281.634 106.04 281.634 100.839V97.5545C281.634 92.901 282.181 90.1643 282.455 88.7951C282.729 87.1521 283.823 86.3307 286.56 86.0568V85.2369H275.344V86.0568C278.355 86.3307 279.72 87.1521 279.994 88.7951C280.267 90.1627 280.541 92.901 280.541 97.5545V100.291C280.541 104.123 279.994 108.229 278.355 110.418C276.986 112.609 274.523 113.975 271.515 113.975C268.231 113.975 266.046 112.882 264.678 110.966C263.309 108.775 262.762 105.764 262.762 101.932V92.0827C262.762 87.157 263.036 86.6094 266.867 86.0617V85.2418L254.827 85.2402ZM299.416 92.0827C299.416 87.157 299.69 86.6094 303.792 86.0617V85.2418H291.481V86.0617C295.313 86.6094 295.86 87.157 295.86 92.0827V108.78C295.86 113.707 295.313 114.252 291.481 114.799V115.347H312C312.548 114.252 313.365 109.6 313.639 108.232L313.092 107.958C312 110.147 311.179 111.792 310.358 112.612C309.263 113.707 307.348 114.525 305.16 114.525C302.972 114.525 301.332 114.525 300.511 113.707C299.69 113.16 299.416 112.064 299.416 109.326V92.0827ZM127.628 133.139C128.174 131.77 128.721 131.496 129.268 131.496C129.816 131.496 130.089 131.496 130.362 131.77C130.635 132.044 130.635 132.044 130.909 132.044C131.456 131.77 131.73 131.223 131.73 130.675C131.73 130.127 131.184 129.58 130.362 129.58C129.268 129.58 128.174 130.949 127.626 132.044V129.58C126.258 129.853 125.163 130.127 124.07 130.401V130.949C125.437 131.223 125.711 131.223 125.711 132.592V138.337C125.711 139.706 125.437 139.706 124.07 139.98V140.528H129.541V139.98C127.626 139.706 127.626 139.706 127.626 138.337L127.628 133.139ZM138.296 129.58C136.928 129.853 135.835 130.127 134.74 130.401V130.949C136.381 131.223 136.381 131.223 136.381 132.592V138.337C136.381 139.706 136.381 139.706 134.74 139.98V140.528H139.937V139.98C138.295 139.706 138.295 139.706 138.295 138.337L138.296 129.58ZM137.475 123.834C136.654 123.834 136.109 124.382 136.109 125.2C136.109 126.021 136.654 126.569 137.475 126.569C138.023 126.569 138.57 126.021 138.57 125.2C138.57 124.38 138.023 123.834 137.475 123.834ZM142.946 137.245C142.946 138.063 142.946 139.433 143.219 139.706C143.493 140.254 144.861 140.802 145.956 140.802C147.87 140.802 149.786 139.706 149.786 137.516C149.786 135.876 148.691 134.781 147.051 133.959C145.958 133.685 144.863 132.864 144.863 132.042C144.863 131.221 145.41 130.399 146.505 130.399C147.324 130.399 148.145 130.947 148.966 132.59L149.514 132.316C149.514 132.042 149.24 130.673 148.966 129.852C148.419 129.852 147.873 129.578 146.779 129.578C144.865 129.578 143.222 130.947 143.222 132.864C143.222 134.233 144.591 135.328 146.231 135.876C147.598 136.42 148.145 137.245 148.145 138.063C148.145 139.433 147.326 139.98 146.231 139.98C144.865 139.98 143.77 138.337 143.496 136.968L142.946 137.245ZM156.351 123.013C155.53 123.286 153.888 123.834 152.795 124.108V124.382C154.435 124.656 154.435 124.656 154.435 126.021V138.339C154.435 139.708 154.435 139.708 152.795 139.982V140.53H158.265V139.982C156.624 139.708 156.351 139.708 156.351 138.339V135.33C156.624 135.33 156.896 135.056 156.896 135.056C157.17 135.056 157.17 135.33 157.717 135.604L159.631 138.065C160.179 138.887 161.273 139.982 161.547 140.53H164.556V139.982L164.01 139.708C163.737 139.708 163.189 139.434 162.643 138.613C161.822 137.791 159.361 135.056 158.54 134.235C159.907 132.866 160.18 132.318 160.728 131.77C161.549 130.949 161.822 130.675 162.643 130.401L163.737 130.127V129.853H159.087V130.401L159.633 130.675C160.18 130.675 160.18 130.949 159.907 131.223C159.361 132.044 158.54 133.413 157.993 133.687C157.721 134.235 157.445 134.509 156.352 134.509L156.351 123.013ZM175.498 138.337C175.498 139.706 175.498 139.706 173.858 139.98V140.528H179.054V139.98C177.686 139.706 177.412 139.706 177.412 138.337V132.044C178.233 131.496 179.328 130.949 180.149 130.949C181.789 130.949 182.336 132.044 182.336 133.413V138.337C182.336 139.706 182.336 139.706 180.694 139.98V140.528H185.893V139.98C184.524 139.706 184.251 139.706 184.251 138.337V132.866V132.044C185.072 131.223 186.166 130.949 186.984 130.949C188.626 130.949 189.173 132.044 189.173 133.687V138.339C189.173 139.708 189.173 139.708 187.531 139.982V140.53H192.73V139.982C191.087 139.708 191.087 139.708 191.087 138.339V132.867C191.087 130.95 189.993 129.581 188.077 129.581C187.259 129.581 186.712 129.855 185.891 130.129C185.617 130.403 184.796 130.95 183.975 131.498C183.702 130.403 182.607 129.581 181.239 129.581C180.418 129.581 179.87 129.855 179.051 130.403L177.409 131.224V129.581C176.314 129.855 174.947 130.129 173.853 130.403V130.95C175.493 131.224 175.493 131.224 175.493 132.593V138.337H175.498ZM205.315 139.433L205.042 138.885C204.494 139.159 204.22 139.433 203.947 139.433C203.673 139.433 203.126 138.885 203.126 138.063V132.592C203.126 131.77 203.126 130.675 202.305 130.127C201.757 129.853 200.936 129.58 200.389 129.58C198.747 129.853 197.108 130.949 196.561 131.223C196.014 131.77 195.74 132.044 195.74 132.318C195.74 132.866 196.561 133.139 196.835 133.139C197.108 133.139 197.382 132.866 197.382 132.592C197.656 131.77 198.2 130.675 199.294 130.675C200.663 130.675 201.484 131.496 201.484 132.866V133.687C200.663 134.235 198.747 135.056 197.382 135.604C196.287 135.878 195.74 136.699 195.74 137.791C195.74 139.16 196.835 140.803 198.477 140.803C199.024 140.803 200.389 139.708 201.484 139.16C201.484 139.708 202.031 140.53 202.852 140.803L205.315 139.433ZM201.484 138.337C200.663 138.885 199.842 139.433 199.294 139.433C198.477 139.433 197.656 138.885 197.656 137.516C197.656 136.698 198.2 136.15 199.024 135.602C199.294 135.328 200.936 134.781 201.484 134.507V138.337ZM211.331 129.58C209.963 129.853 208.871 130.127 207.777 130.401V130.949C209.419 131.223 209.419 131.223 209.419 132.592V138.337C209.419 139.706 209.145 139.706 207.503 139.98V140.528H212.971V139.98C211.329 139.706 211.329 139.706 211.329 138.337V132.044C211.877 131.496 212.971 130.949 214.066 130.949C215.708 130.949 216.256 132.044 216.256 133.687V138.339C216.256 139.708 215.982 139.708 214.34 139.982V140.53H219.538V139.982C218.17 139.708 218.17 139.708 218.17 138.339V132.867C218.17 130.95 217.075 129.581 214.886 129.581C214.338 129.581 213.517 129.855 212.97 130.403C212.149 130.677 211.875 130.95 211.328 131.224V129.58H211.331ZM232.124 139.433V138.885L231.029 139.433C230.482 139.433 230.208 138.885 230.208 138.063V132.592C230.208 131.77 230.208 130.675 229.387 130.127C228.84 129.853 228.019 129.58 227.471 129.58C225.829 129.853 224.187 130.949 223.64 131.223C223.092 131.77 222.819 132.044 222.819 132.318C222.819 132.866 223.64 133.139 223.913 133.139C224.187 133.139 224.461 132.866 224.461 132.592C224.735 131.77 225.282 130.675 226.377 130.675C227.745 130.675 228.566 131.496 228.566 132.866V133.687C227.745 134.235 225.829 135.056 224.461 135.604C223.366 135.878 222.545 136.699 222.545 137.791C222.545 139.16 223.914 140.803 225.556 140.803C226.103 140.803 227.471 139.708 228.566 139.16C228.566 139.708 228.84 140.53 229.661 140.803L232.124 139.433ZM228.566 138.337C227.745 138.885 226.924 139.433 226.377 139.433C225.556 139.433 224.735 138.885 224.735 137.516C224.735 136.698 225.008 136.15 226.103 135.602C226.377 135.328 228.019 134.781 228.566 134.507V138.337ZM243.887 131.223C244.157 130.949 244.704 130.401 244.978 130.127V129.853C243.887 129.853 242.792 130.127 241.697 130.127C240.876 129.853 240.329 129.58 239.508 129.58C237.592 129.58 235.129 130.949 235.129 133.413C235.129 135.056 236.224 136.152 237.592 136.699C237.045 137.247 235.95 137.791 235.129 138.065C235.129 138.339 235.129 138.613 235.403 138.887C235.677 139.434 236.498 139.982 237.319 140.256C236.771 140.803 235.677 141.625 235.129 141.899C234.856 142.446 234.856 142.72 234.856 143.268C234.856 144.637 235.95 146.28 238.961 146.28C241.971 146.28 244.703 144.089 244.703 141.627C244.703 139.164 242.79 138.888 241.422 138.888H238.959C237.591 138.888 237.317 138.341 237.317 138.067C237.317 137.519 237.864 137.249 238.412 136.971H239.233C241.148 136.971 243.338 135.606 243.338 133.141C243.338 132.32 243.064 131.498 242.517 130.95L243.887 131.223ZM239.234 130.127C240.603 130.127 241.424 131.77 241.424 133.413C241.424 135.33 240.329 136.152 239.508 136.152C238.14 136.152 237.045 135.056 237.045 133.139C237.045 131.223 238.14 130.127 239.234 130.127ZM239.782 145.181C237.866 145.181 236.498 144.086 236.498 142.717C236.498 141.895 237.045 141.348 237.592 140.8C238.14 140.526 238.687 140.253 239.508 140.253C240.603 140.253 241.424 140.253 241.971 140.526C242.792 141.074 243.339 141.622 243.339 142.717C243.339 143.812 242.245 145.181 239.782 145.181ZM255.648 138.063C254.827 138.885 254.006 139.159 253.185 139.159C251.543 139.159 249.354 137.79 249.354 134.235C252.364 134.235 255.37 133.961 255.646 133.961C256.191 133.687 256.191 133.687 256.191 132.866C256.191 131.223 254.552 129.58 252.636 129.58C249.899 129.58 247.438 132.318 247.438 135.602C247.438 138.337 249.354 140.8 252.362 140.8C253.183 140.8 254.825 140.253 256.191 138.336L255.648 138.063ZM249.355 133.412C249.629 131.495 250.997 130.399 252.092 130.399C253.46 130.399 254.008 131.495 254.008 132.59C254.008 133.138 254.008 133.412 253.734 133.412H249.355ZM260.845 138.337C260.845 139.706 260.571 139.706 258.929 139.98V140.528H264.127V139.98C262.759 139.706 262.759 139.706 262.759 138.337V132.044C263.58 131.496 264.401 130.949 265.495 130.949C267.134 130.949 267.682 132.044 267.682 133.413V138.337C267.682 139.706 267.408 139.706 265.769 139.98V140.528H270.964V139.98C269.596 139.706 269.596 139.706 269.596 138.337V132.866C269.596 132.592 269.596 132.318 269.322 132.044C270.417 131.223 271.238 130.949 272.059 130.949C273.974 130.949 274.522 132.044 274.522 133.687V138.339C274.522 139.708 274.248 139.708 272.606 139.982V140.53H277.804V139.982C276.436 139.708 276.436 139.708 276.436 138.339V132.867C276.436 130.95 275.341 129.581 273.152 129.581C272.331 129.581 271.783 129.855 270.962 130.129C270.689 130.403 269.868 130.95 269.32 131.498C268.773 130.403 267.678 129.581 266.584 129.581C265.766 129.581 264.945 129.855 264.397 130.403C263.576 130.677 263.029 130.95 262.755 131.224V129.581C261.387 129.855 260.292 130.129 259.198 130.403V130.95C260.84 131.224 260.84 131.224 260.84 132.593V138.337H260.845ZM289.021 138.063C288.2 138.885 287.379 139.159 286.558 139.159C284.916 139.159 282.453 137.79 282.727 134.235C285.737 134.235 288.746 133.961 289.02 133.961C289.567 133.687 289.567 133.687 289.567 132.866C289.567 131.223 287.925 129.58 286.009 129.58C282.999 129.58 280.811 132.318 280.811 135.602C280.811 138.337 282.727 140.8 285.736 140.8C286.557 140.8 288.199 140.253 289.567 138.336L289.021 138.063ZM282.727 133.412C283.001 131.495 284.369 130.399 285.464 130.399C286.558 130.399 287.379 131.495 287.379 132.59C287.379 133.138 287.379 133.412 287.106 133.412H282.727ZM296.132 129.58C294.764 129.853 293.669 130.127 292.574 130.401V130.949C294.216 131.223 294.216 131.223 294.216 132.592V138.337C294.216 139.706 293.943 139.706 292.301 139.98V140.528H297.499V139.98C296.13 139.706 296.13 139.706 296.13 138.337V132.044C296.678 131.496 297.772 130.949 298.593 130.949C300.509 130.949 301.057 132.044 301.057 133.687V138.339C301.057 139.708 300.783 139.708 299.141 139.982V140.53H304.336V139.982C302.967 139.708 302.967 139.708 302.967 138.339V132.867C302.967 130.95 301.873 129.581 299.687 129.581C298.866 129.581 298.318 129.855 297.771 130.403C296.95 130.677 296.402 130.95 296.129 131.224V129.58H296.132ZM310.63 130.675H313.364C313.637 130.401 313.637 130.127 313.364 129.853H310.63V126.841H310.356L308.714 128.21V129.853H307.62L306.799 130.675H308.714V137.79C308.714 139.706 309.535 140.802 311.178 140.802C311.451 140.802 311.725 140.528 311.999 140.528L313.911 139.433L313.637 138.885C313.09 139.159 312.546 139.433 312.272 139.433C311.451 139.433 310.63 139.159 310.63 137.245V130.675Z" fill="#0C0E0F"/>
<path fill-rule="evenodd" clip-rule="evenodd" d="M109.299 77.709H110.394V152.429H109.299V77.709Z" fill="black"/>
</svg>
