<svg width="360" height="219" viewBox="0 0 360 219" fill="none" xmlns="http://www.w3.org/2000/svg">
<rect width="360" height="219" fill="white"/>
<g clip-path="url(#clip0_438_74)">
<path d="M101.257 108.416H111.062V121.983C108.003 122.952 104.14 123.483 100.124 123.483C83.8506 123.483 74.286 109.753 74.286 96.3449C74.286 83.194 82.9374 73.9695 95.0072 73.9695C102.645 73.9695 107.089 76.5186 111.065 80.0694V84.4959L118.52 77.1514C113.804 74.0085 106.977 71.0215 97.2172 71.0215C75.7928 71.0215 66 86.1217 66 98.5311C66 116.195 79.0592 126.836 95.4702 126.836C103.428 126.836 110.493 125.639 118.654 123.402V109.384C118.654 108.668 118.974 108.176 119.452 107.744L122.027 105.207H104.539L101.257 108.416Z" fill="url(#paint0_linear_438_74)"/>
<path d="M145.181 89.978C132.85 89.978 125.209 98.8553 125.209 108.278C125.209 116.411 131.364 126.068 143.836 126.068C155.833 126.068 163.193 117.173 163.193 107.585C163.193 98.6544 156 89.9813 145.181 89.9813V89.978ZM143.135 92.5662C151.83 92.5662 155.701 103.725 155.701 111.685C155.701 123.522 146.688 123.756 145.61 123.756C141.485 123.756 138.603 121.3 136.445 118.078C134.545 115.11 132.688 109.594 132.688 104.205C132.688 98.8371 134.472 96.2159 137.279 94.2876C139.574 92.8421 141.723 92.5662 143.132 92.5662H143.135Z" fill="url(#paint1_linear_438_74)"/>
<path d="M225.791 89.9751C215.021 89.9751 209.195 96.6929 209.195 104.193C209.195 109.903 213.347 116.345 221.913 116.345H224.08C224.08 116.345 223.49 117.758 223.487 119.122C223.487 121.135 224.22 122.265 225.779 124.005C211.039 124.889 205.115 130.746 205.115 137.041C205.115 142.554 210.473 147.979 221.733 147.979C235.063 147.979 241.967 140.688 241.967 133.533C241.967 128.488 239.416 125.723 232.957 120.955C231.057 119.5 230.689 118.574 230.689 117.485C230.689 115.926 231.635 114.894 231.982 114.504C232.594 113.869 233.654 113.143 234.049 112.795C236.22 110.984 239.285 108.303 239.285 102.952C239.285 99.2815 237.735 96.1236 234.205 93.1666H238.515L241.754 89.9758H225.791V89.9751ZM222.82 92.3623C224.775 92.3623 226.406 93.0431 228.129 94.4556C230.04 96.1531 233.094 100.714 233.094 106.359C233.094 112.45 228.291 114.117 225.691 114.117C224.418 114.117 222.894 113.766 221.603 112.896C218.735 111.064 215.889 106.188 215.889 100.385C215.889 95.1483 219.055 92.3623 222.82 92.3623ZM227.085 126.317C227.907 126.317 228.498 126.383 228.498 126.383C228.498 126.383 230.437 127.748 231.791 128.767C234.945 131.223 236.911 133.101 236.911 136.445C236.911 141.042 232.582 144.647 225.572 144.647C217.877 144.647 211.995 141.117 211.995 135.353C211.995 130.579 216.026 126.469 227.085 126.317Z" fill="url(#paint2_linear_438_74)"/>
<path d="M244.085 125.015H258.87L261.123 122.796L256.882 122.274C255.741 122.136 255.062 121.165 255.062 120.223V76.225C255.062 75.3583 255.47 74.9144 255.768 74.6322L258.435 72.0051H245.826L242.545 75.238H247.446V120.814C247.446 121.461 247.239 121.902 246.794 122.355L244.085 125.015Z" fill="url(#paint3_linear_438_74)"/>
<path d="M278.905 89.978C270.649 89.978 261.879 96.1769 261.879 107.306C261.879 116.498 268.171 126.068 279.927 126.068C282.859 126.068 285.273 125.696 287.535 124.674C289.961 123.573 292.296 121.786 294 119.539C290.783 121.138 288.159 122.187 284.673 122.187C278.049 122.187 271.662 117.479 269.428 108.824L292.828 99.5061C291.476 94.7587 287.665 89.978 278.908 89.978H278.905ZM277.376 92.5242C281.806 92.5242 285.008 96.114 285.008 98.924C285.008 99.8327 284.43 100.313 283.285 100.756L268.901 106.487C268.901 106.487 268.512 104.703 268.512 102.775C268.512 94.6865 274.448 92.5242 277.376 92.5242Z" fill="url(#paint4_linear_438_74)"/>
<path d="M187.025 89.978C174.693 89.978 167.053 98.8553 167.053 108.278C167.053 116.411 173.208 126.068 185.68 126.068C197.676 126.068 205.037 117.173 205.037 107.585C205.037 98.6544 197.844 89.9813 187.025 89.9813V89.978ZM184.979 92.5662C193.673 92.5662 197.545 103.725 197.545 111.685C197.545 123.522 188.532 123.756 187.454 123.756C183.329 123.756 180.447 121.3 178.289 118.078C176.389 115.11 174.532 109.594 174.532 104.205C174.532 98.8371 176.316 96.2159 179.123 94.2876C181.418 92.8421 183.567 92.5662 184.976 92.5662H184.979Z" fill="url(#paint5_linear_438_74)"/>
</g>
<defs>
<linearGradient id="paint0_linear_438_74" x1="93.8742" y1="70.8635" x2="93.8742" y2="126.833" gradientUnits="userSpaceOnUse">
<stop stop-color="#196EEF"/>
<stop offset="0.5" stop-color="#186DEE"/>
<stop offset="1" stop-color="#1065E7"/>
</linearGradient>
<linearGradient id="paint1_linear_438_74" x1="144.063" y1="89.8925" x2="144.063" y2="126.083" gradientUnits="userSpaceOnUse">
<stop stop-color="#DE5744"/>
<stop offset="0.5" stop-color="#DB4632"/>
<stop offset="1" stop-color="#D13D29"/>
</linearGradient>
<linearGradient id="paint2_linear_438_74" x1="223.406" y1="89.8926" x2="223.406" y2="148.001" gradientUnits="userSpaceOnUse">
<stop stop-color="#1A6FEF"/>
<stop offset="0.25" stop-color="#1E72EF"/>
<stop offset="0.5" stop-color="#166BEC"/>
<stop offset="0.75" stop-color="#1267E9"/>
<stop offset="1" stop-color="#1063E5" stop-opacity="0.87"/>
</linearGradient>
<linearGradient id="paint3_linear_438_74" x1="251.699" y1="71.8803" x2="251.699" y2="125.066" gradientUnits="userSpaceOnUse">
<stop stop-color="#0AA561"/>
<stop offset="0.5" stop-color="#009B58"/>
<stop offset="1" stop-color="#00914B"/>
</linearGradient>
<linearGradient id="paint4_linear_438_74" x1="277.805" y1="89.8925" x2="277.805" y2="125.983" gradientUnits="userSpaceOnUse">
<stop stop-color="#DE5644"/>
<stop offset="0.5" stop-color="#DA4531"/>
<stop offset="1" stop-color="#CE3A28"/>
</linearGradient>
<linearGradient id="paint5_linear_438_74" x1="185.908" y1="89.9711" x2="185.908" y2="126.011" gradientUnits="userSpaceOnUse">
<stop stop-color="#FFC01A"/>
<stop offset="0.5" stop-color="#FFBA03"/>
<stop offset="1" stop-color="#FFB300"/>
</linearGradient>
<clipPath id="clip0_438_74">
<rect width="228" height="77" fill="white" transform="translate(66 71)"/>
</clipPath>
</defs>
</svg>
