<svg width="360" height="219" viewBox="0 0 360 219" fill="none" xmlns="http://www.w3.org/2000/svg">
<rect width="360" height="219" fill="white"/>
<g clip-path="url(#clip0_438_73)">
<path d="M310.001 106.882V102.354H304.344V95.3139L304.154 95.3722L298.841 96.9882L298.736 97.0199V102.354H290.351V99.3824C290.351 97.9988 290.662 96.9399 291.275 96.2337C291.884 95.5361 292.756 95.1814 293.867 95.1814C294.665 95.1814 295.492 95.3684 296.325 95.7373L296.533 95.83V91.061L296.435 91.0251C295.659 90.7476 294.603 90.6079 293.294 90.6079C291.644 90.6079 290.145 90.9648 288.838 91.6723C287.529 92.3806 286.5 93.3919 285.78 94.6777C285.061 95.962 284.697 97.4453 284.697 99.0868V102.354H280.758V106.882H284.697V125.959H290.351V106.882H298.736V119.005C298.736 123.998 301.105 126.528 305.777 126.528C306.545 126.528 307.353 126.439 308.178 126.264C309.018 126.084 309.59 125.905 309.926 125.713L310.001 125.669V121.099L309.771 121.25C309.464 121.453 309.082 121.619 308.634 121.743C308.184 121.869 307.808 121.932 307.517 121.932C306.423 121.932 305.613 121.638 305.11 121.06C304.602 120.476 304.344 119.455 304.344 118.027V106.882H310.001ZM268.132 121.932C266.079 121.932 264.461 121.256 263.321 119.923C262.174 118.584 261.593 116.674 261.593 114.248C261.593 111.745 262.174 109.786 263.322 108.423C264.463 107.069 266.065 106.382 268.086 106.382C270.046 106.382 271.607 107.038 272.725 108.334C273.848 109.636 274.418 111.579 274.418 114.112C274.418 116.675 273.882 118.644 272.825 119.961C271.775 121.268 270.196 121.932 268.132 121.932ZM268.383 101.785C264.468 101.785 261.358 102.926 259.141 105.175C256.925 107.425 255.801 110.538 255.801 114.429C255.801 118.125 256.898 121.098 259.061 123.264C261.224 125.43 264.168 126.528 267.811 126.528C271.606 126.528 274.654 125.371 276.87 123.091C279.086 120.813 280.209 117.729 280.209 113.928C280.209 110.175 279.155 107.18 277.076 105.028C274.997 102.876 272.071 101.785 268.383 101.785ZM246.685 101.785C244.022 101.785 241.819 102.462 240.136 103.798C238.443 105.141 237.584 106.903 237.584 109.035C237.584 110.143 237.769 111.127 238.134 111.962C238.501 112.8 239.069 113.537 239.824 114.156C240.573 114.77 241.729 115.414 243.261 116.068C244.548 116.595 245.509 117.04 246.119 117.392C246.715 117.736 247.138 118.082 247.377 118.419C247.61 118.749 247.727 119.2 247.727 119.757C247.727 121.343 246.533 122.114 244.075 122.114C243.163 122.114 242.123 121.925 240.984 121.552C239.852 121.185 238.785 120.646 237.818 119.956L237.583 119.789V125.201L237.67 125.241C238.47 125.608 239.478 125.917 240.667 126.161C241.854 126.405 242.932 126.529 243.868 126.529C246.758 126.529 249.086 125.848 250.784 124.505C252.493 123.153 253.359 121.349 253.359 119.144C253.359 117.552 252.893 116.188 251.974 115.087C251.061 113.996 249.477 112.994 247.267 112.108C245.507 111.406 244.379 110.823 243.914 110.375C243.466 109.943 243.238 109.331 243.238 108.557C243.238 107.87 243.519 107.32 244.096 106.875C244.677 106.427 245.487 106.2 246.502 106.2C247.444 106.2 248.408 106.348 249.367 106.638C250.324 106.927 251.166 107.316 251.868 107.791L252.099 107.948V102.814L252.01 102.776C251.362 102.5 250.508 102.264 249.47 102.072C248.437 101.881 247.5 101.785 246.685 101.785ZM222.844 121.932C220.792 121.932 219.174 121.256 218.034 119.923C216.886 118.584 216.306 116.675 216.306 114.248C216.306 111.745 216.887 109.786 218.035 108.423C219.175 107.069 220.777 106.382 222.799 106.382C224.759 106.382 226.319 107.038 227.437 108.334C228.561 109.636 229.131 111.579 229.131 114.112C229.131 116.675 228.595 118.644 227.537 119.961C226.487 121.268 224.909 121.932 222.844 121.932ZM223.096 101.785C219.18 101.785 216.07 102.926 213.854 105.175C211.638 107.425 210.514 110.538 210.514 114.429C210.514 118.127 211.611 121.098 213.774 123.264C215.938 125.43 218.881 126.528 222.523 126.528C226.318 126.528 229.367 125.371 231.583 123.091C233.799 120.813 234.922 117.729 234.922 113.928C234.922 110.175 233.868 107.18 231.789 105.028C229.709 102.876 226.784 101.785 223.096 101.785ZM201.931 106.442V102.354H196.346V125.959H201.931V113.884C201.931 111.831 202.399 110.144 203.323 108.87C204.236 107.611 205.451 106.973 206.936 106.973C207.439 106.973 208.003 107.055 208.615 107.219C209.22 107.381 209.659 107.557 209.917 107.742L210.152 107.911V102.313L210.062 102.275C209.541 102.055 208.806 101.944 207.875 101.944C206.471 101.944 205.215 102.393 204.139 103.275C203.195 104.051 202.512 105.115 201.991 106.442H201.931ZM186.344 101.785C183.782 101.785 181.496 102.331 179.552 103.408C177.604 104.487 176.098 106.028 175.073 107.988C174.052 109.942 173.534 112.225 173.534 114.771C173.534 117.002 174.036 119.048 175.029 120.852C176.023 122.659 177.429 124.073 179.209 125.053C180.986 126.032 183.04 126.529 185.315 126.529C187.969 126.529 190.235 126.001 192.052 124.961L192.126 124.919V119.832L191.891 120.002C191.068 120.598 190.148 121.074 189.158 121.417C188.171 121.759 187.271 121.932 186.482 121.932C184.291 121.932 182.531 121.251 181.254 119.907C179.974 118.561 179.325 116.671 179.325 114.293C179.325 111.9 180.002 109.962 181.336 108.531C182.665 107.105 184.428 106.382 186.574 106.382C188.41 106.382 190.199 107 191.891 108.22L192.126 108.39V103.03L192.05 102.987C191.413 102.633 190.544 102.34 189.466 102.118C188.392 101.897 187.342 101.785 186.344 101.785ZM169.688 102.354H164.102V125.959H169.688V102.354ZM166.952 92.2982C166.033 92.2982 165.231 92.6093 164.572 93.2258C163.911 93.844 163.575 94.6224 163.575 95.541C163.575 96.4452 163.907 97.2094 164.562 97.8112C165.213 98.4112 166.017 98.7154 166.952 98.7154C167.887 98.7154 168.694 98.4112 169.353 97.8122C170.016 97.2094 170.352 96.4455 170.352 95.541C170.352 94.6545 170.025 93.8841 169.38 93.2507C168.736 92.6185 167.919 92.2982 166.952 92.2982ZM153.017 100.612V125.959H158.717V93.0208H150.828L140.8 117.486L131.069 93.0208H122.859V125.959H128.216V100.61H128.4L138.675 125.959H142.718L152.833 100.612H153.017Z" fill="#706D6E"/>
<path d="M77.2742 108.135H51V82.0142H77.2742V108.135Z" fill="#F1511B"/>
<path d="M106.283 108.135H80.0098V82.0142H106.283V108.135Z" fill="#80CC28"/>
<path d="M77.2734 136.986H51V110.865H77.2734V136.986Z" fill="#00ADEF"/>
<path d="M106.283 136.986H80.0098V110.865H106.283V136.986Z" fill="#FBBC09"/>
</g>
<defs>
<clipPath id="clip0_438_73">
<rect width="259" height="55" fill="white" transform="translate(51 82)"/>
</clipPath>
</defs>
</svg>
