<svg width="360" height="219" viewBox="0 0 360 219" fill="none" xmlns="http://www.w3.org/2000/svg">
<rect width="360" height="219" fill="white"/>
<g clip-path="url(#clip0_438_70)">
<path d="M313.832 86.427C310.202 65.262 247.567 58.657 173.927 71.6739C143.001 77.1433 115.076 85.2105 93.3295 94.2863C96.67 94.3605 99.1474 95.1382 100.653 96.6625C101.83 97.8588 102.424 99.5006 102.424 101.546V103.646H95.2032V101.792C95.2032 100.247 94.2909 99.2899 92.6752 99.2899C91.3175 99.2899 90.481 99.9124 90.2111 101.138C90.1206 101.623 90.1306 102.121 90.2403 102.602C91.0129 105.808 101.735 107.8 102.901 113.718C103.054 114.479 103.262 116.109 102.935 118.441C102.266 123.213 98.1354 125.055 92.8773 125.055C85.5381 125.055 82.5567 121.526 82.5567 116.66L82.562 114.358H90.3028L90.3068 117.225C90.3068 118.837 91.4611 119.727 93.0329 119.727C94.5223 119.727 95.392 119.118 95.6926 117.873C95.8322 117.301 95.8934 116.457 95.6394 115.812C94.2072 112.164 84.195 110.46 82.9623 104.561C82.687 103.235 82.6644 102.106 82.8931 100.679C83.0105 99.9718 83.2263 99.2849 83.5341 98.6392C59.4126 110.093 45.302 122.695 47.1663 133.576C50.8007 154.744 113.435 161.342 187.073 148.325C219.444 142.604 248.545 134.04 270.693 124.443C270.373 124.46 270.062 124.495 269.729 124.495C264.689 124.495 260.189 122.577 259.722 117.347C259.64 116.395 259.625 115.997 259.623 115.454L259.625 103.43C259.625 102.911 259.685 102.001 259.742 101.531C260.339 96.4762 264.276 94.3916 269.732 94.3916C273.954 94.3916 279.131 95.6216 279.7 101.535C279.776 102.278 279.768 103.07 279.767 103.331V104.466H272.474V102.772C272.474 102.736 272.463 102.102 272.383 101.707C272.264 101.103 271.757 99.7044 269.68 99.7044C267.628 99.7044 267.096 101.106 266.963 101.708C266.887 102.039 266.851 102.514 266.851 103.041V116.109C266.845 116.562 266.867 116.918 266.913 117.178C266.949 117.383 267.317 119.184 269.705 119.184C272.076 119.184 272.443 117.383 272.477 117.178C272.539 116.824 272.547 116.403 272.544 116.109V112.06H269.675V107.699H279.822V115.457C279.82 115.985 279.812 116.375 279.724 117.347C279.602 118.719 279.176 119.88 278.509 120.872C301.997 109.548 315.673 97.1499 313.832 86.427ZM122.887 123.938L119.193 98.4528H119.06L115.271 123.938H107.485L112.722 95.1571H125.426L130.631 123.938H122.887ZM160.337 123.938L160.166 98.9456H160.041L155.46 123.938H148.152L143.594 98.9456H143.463L143.297 123.938H136.056L136.684 95.1571H148.331L151.722 116.537H151.888L155.288 95.1571H166.929L167.554 123.938H160.337ZM194.435 118.361C193.656 123.936 188.277 124.91 184.475 124.91C178.162 124.91 174.258 122.171 174.258 116.596L174.262 114.323H181.91L181.915 117.155C181.915 118.693 182.983 119.634 184.632 119.634C186.103 119.634 186.964 119.035 187.263 117.803C187.402 117.229 187.459 116.392 187.214 115.76C185.805 112.181 175.871 110.427 174.664 104.62C174.387 103.304 174.367 102.186 174.594 100.774C175.435 95.5095 180.411 94.4159 184.416 94.4159C187.999 94.4159 190.607 95.2098 192.171 96.7976C193.337 97.983 193.927 99.6099 193.927 101.634V103.71H186.775V101.878C186.775 100.309 185.817 99.402 184.275 99.402C182.908 99.402 182.081 100.019 181.81 101.233C181.722 101.712 181.734 102.205 181.845 102.68C182.61 105.872 193.238 107.823 194.402 113.685C194.552 114.433 194.758 116.039 194.435 118.361ZM220.922 115.746C220.933 116.286 220.881 117.364 220.852 117.641C220.416 122.383 217.075 124.793 210.949 124.793C204.798 124.793 201.455 122.383 201.022 117.641C200.973 117.012 200.949 116.382 200.951 115.751V95.1504H208.268V116.4C208.26 116.876 208.284 117.227 208.33 117.471C208.421 117.944 208.884 119.477 210.949 119.477C213.007 119.477 213.47 117.942 213.567 117.477C213.608 117.225 213.634 116.857 213.634 116.399V95.1504H220.922V115.746ZM252.446 123.645H242.265L235.431 100.848H235.316L235.695 123.645H228.599V95.1571H239.207L245.524 117.057H245.672L245.298 95.1571H252.446V123.645Z" fill="#2D4F9E"/>
</g>
<defs>
<clipPath id="clip0_438_70">
<rect width="267" height="90" fill="white" transform="translate(47 65)"/>
</clipPath>
</defs>
</svg>
