<svg width="360" height="219" viewBox="0 0 360 219" fill="none" xmlns="http://www.w3.org/2000/svg">
<rect width="360" height="219" fill="white"/>
<g clip-path="url(#clip0_438_71)">
<path d="M32.4119 96.3166H24.7096C24.2282 96.3166 23.8672 95.9103 23.8672 95.4459C23.8672 94.9815 24.2282 94.5752 24.7096 94.5752H41.7991C42.2805 94.5752 42.7017 94.9815 42.7017 95.4459C42.7017 95.9103 42.2805 96.3166 41.7991 96.3166H34.157V118.317C34.157 118.781 33.7357 119.187 33.2544 119.187C32.773 119.187 32.3517 118.781 32.3517 118.317V96.3166H32.4119Z" fill="black"/>
<path d="M33.253 119.942C32.3504 119.942 31.5682 119.187 31.5682 118.317V97.1293H24.7083C23.7455 97.1293 23.0234 96.3746 23.0234 95.4459C23.0234 94.5171 23.8057 93.8206 24.7083 93.8206H41.7978C42.7606 93.8206 43.4826 94.5752 43.4826 95.4459C43.4826 96.3746 42.7004 97.1293 41.7978 97.1293H34.9379V118.317C34.9379 119.187 34.2158 119.942 33.253 119.942ZM24.7083 95.3878C24.6481 95.5039 24.7083 95.5039 24.7083 95.5039H33.1929V118.317L33.253 118.375L33.3132 118.317V95.5039H41.7978C41.7978 95.5039 41.8579 95.5039 41.8579 95.4459L41.7978 95.3878H24.7083ZM62.0163 113.615C62.0163 111.815 61.0535 110.712 59.9704 109.9C58.8271 109.145 57.5032 108.739 57.0218 108.681C56.9015 108.623 56.9015 108.623 56.8413 108.623H50.6434V118.317C50.6434 118.781 50.2221 119.187 49.7408 119.187C49.2594 119.187 48.8381 118.781 48.8381 118.317V95.4459C48.8381 95.0396 49.1992 94.6332 49.6204 94.5752H56.9015C60.873 94.5752 64.1224 97.7097 64.1224 101.599C64.1224 104.385 62.4375 106.823 59.9102 107.926L60.2712 108.1C61.9561 109.029 63.7012 110.828 63.7012 113.557C63.7012 115.008 63.8215 115.879 64.002 116.401C64.1224 116.807 64.3029 116.982 64.3631 116.982C64.7843 116.923 65.2055 117.156 65.3259 117.562C65.4462 118.026 65.2055 118.491 64.7241 118.665C64.6639 118.665 64.4834 118.723 64.3029 118.723H64.2427C63.7613 118.723 62.9791 118.375 62.618 117.62C62.257 116.807 62.0163 115.704 62.0163 113.615ZM56.9617 96.3166H50.6434V106.939H57.082C60.0305 106.881 62.4375 104.501 62.4375 101.657C62.4375 98.6385 59.9704 96.3166 56.9617 96.3166Z" fill="black"/>
<path d="M49.7415 119.942C48.7787 119.942 48.0566 119.187 48.0566 118.317V95.4459C48.0566 94.6332 48.7787 93.8786 49.6212 93.8206H56.9624C61.4153 93.8206 65.0257 97.3034 65.0257 101.657C65.0257 104.211 63.7019 106.591 61.5958 108.042C62.8595 108.971 64.6045 110.712 64.6045 113.673C64.6045 115.124 64.785 115.879 64.9054 116.285C64.9054 116.343 64.9054 116.343 64.9656 116.343C65.5673 116.459 66.0487 116.865 66.2894 117.388V117.504C66.4699 118.375 66.0487 119.245 65.2063 119.536H64.9054C64.785 119.536 64.6045 119.594 64.424 119.594H64.3638C63.6417 119.594 62.5586 119.129 62.017 118.026C61.4755 117.04 61.2348 115.704 61.2348 113.615C61.2348 112.338 60.6932 111.409 59.4897 110.538C58.5269 109.9 57.3235 109.493 56.9022 109.435L56.7819 109.377C56.7217 109.377 56.7217 109.377 56.7217 109.319H51.5467V118.259C51.4866 119.187 50.7043 119.942 49.7415 119.942ZM49.7415 95.3878L49.6813 118.317L49.7415 118.375C49.8017 118.375 49.8017 118.317 49.8017 118.317V107.81H56.7819C56.9624 107.81 57.1429 107.868 57.2031 107.926C57.865 108.042 59.249 108.507 60.3923 109.261C62.017 110.422 62.7993 111.873 62.7993 113.615C62.7993 115.414 62.9798 116.517 63.401 117.272C63.7019 117.794 64.1833 117.968 64.3037 117.968H64.5444C64.5444 117.968 64.6045 117.91 64.6045 117.852H64.4842L64.1231 117.91L63.8223 117.678C63.7621 117.62 63.4612 117.33 63.2807 116.749C63.04 116.053 62.9197 115.008 62.9197 113.673C62.9197 110.828 60.8737 109.377 59.9109 108.913C59.8508 108.913 59.8508 108.855 59.7906 108.855L59.4296 108.681L58.2261 107.926L59.5499 107.346C61.7763 106.301 63.2807 104.095 63.2807 101.715C63.2807 98.2902 60.3923 95.5039 56.8421 95.5039H49.7415V95.3878ZM56.7819 107.694H49.8017V95.5039H56.9022C60.3923 95.5039 63.2205 98.2322 63.2205 101.599C63.2205 104.85 60.4525 107.636 57.0828 107.694H56.7819ZM51.4866 106.127H57.0828C59.5499 106.069 61.5958 104.037 61.5958 101.599C61.5958 99.1029 59.4897 97.0712 56.9022 97.0712H51.4264V106.127H51.4866ZM99.6259 118.665C99.5657 118.665 99.5657 118.607 99.5657 118.607L99.5055 118.549L89.637 95.9103C89.4564 95.5039 89.6971 94.9815 90.1184 94.8074C90.5396 94.5752 91.0811 94.8074 91.2617 95.2137L100.348 116.111L109.494 95.2137C109.615 94.8074 110.156 94.5752 110.638 94.8074C111.059 94.9815 111.3 95.5039 111.119 95.9103L101.311 118.375C101.251 118.665 101.07 118.955 100.829 119.071H100.769C100.649 119.129 100.528 119.129 100.468 119.129C100.348 119.129 100.228 119.129 100.167 119.071C100.107 119.071 100.107 119.013 100.107 119.013C99.8064 119.013 99.686 118.897 99.6259 118.665Z" fill="black"/>
<path d="M100.408 119.942C100.228 119.942 100.047 119.942 99.8065 119.884C99.6861 119.884 99.626 119.826 99.5658 119.768C99.2649 119.652 99.0242 119.42 98.9039 119.129C98.9039 119.129 98.8437 119.071 98.8437 119.013L98.7835 118.897L88.915 96.2587C88.5539 95.446 88.9751 94.4592 89.8176 94.1109C90.0583 93.9948 90.299 93.9368 90.5397 93.9368C91.2016 93.9368 91.8635 94.3431 92.1042 94.9236L100.468 114.079L108.833 94.9236C109.073 94.3431 109.675 93.9368 110.337 93.9368C110.578 93.9368 110.818 93.9948 111.059 94.1109C111.901 94.4592 112.323 95.446 111.962 96.2587L102.153 118.607C102.033 119.187 101.672 119.652 101.13 119.826L101.01 119.884H100.95C100.769 119.884 100.589 119.942 100.408 119.942ZM100.288 118.201L100.348 118.259V118.375H100.408V118.201L110.337 95.6201C110.337 95.6201 110.337 95.5621 110.277 95.5621H110.217L100.348 118.201L90.4795 95.5621H90.3591C90.3591 95.5621 90.299 95.6201 90.299 95.6782L99.987 117.91H100.047L100.288 118.201ZM116.715 95.446C116.715 94.9816 117.137 94.5753 117.558 94.5753H130.616C131.097 94.5753 131.518 94.9816 131.518 95.446C131.518 95.9104 131.157 96.3167 130.616 96.3167H118.46V106.011H129.111C129.593 106.011 129.954 106.417 129.954 106.881C129.954 107.346 129.533 107.752 129.111 107.752H118.46V117.446H130.616C131.097 117.446 131.518 117.852 131.518 118.317C131.518 118.781 131.157 119.187 130.616 119.187H117.498C117.076 119.129 116.715 118.781 116.715 118.317V95.446Z" fill="black"/>
<path d="M130.676 119.942H117.438C116.535 119.884 115.873 119.187 115.873 118.317V95.4459C115.873 94.5171 116.655 93.8206 117.558 93.8206H130.676C131.639 93.8206 132.361 94.5171 132.361 95.4459C132.361 96.3746 131.639 97.1293 130.676 97.1293H119.303V105.256H129.111C130.074 105.256 130.796 106.011 130.796 106.939C130.796 107.868 130.014 108.565 129.111 108.565H119.303V116.691H130.676C131.639 116.691 132.361 117.446 132.361 118.375C132.361 119.245 131.639 119.942 130.676 119.942ZM117.558 118.375H130.676C130.676 118.375 130.736 118.375 130.736 118.317C130.736 118.259 130.676 118.259 130.676 118.259H117.678V106.939H129.172L129.232 106.881C129.232 106.823 129.172 106.823 129.172 106.823H117.678V95.5039H130.676C130.676 95.5039 130.736 95.5039 130.736 95.4459C130.736 95.3878 130.676 95.3878 130.676 95.3878H117.558L117.498 95.4459L117.558 118.375ZM139.221 119.129H139.16C138.679 119.129 138.318 118.723 138.318 118.259V95.4459C138.318 94.9815 138.739 94.5752 139.16 94.5752C139.642 94.5752 140.063 94.9815 140.063 95.4459V117.446H152.218C152.7 117.446 153.121 117.852 153.121 118.317C153.121 118.781 152.7 119.187 152.218 119.187H139.221V119.129Z" fill="black"/>
<path d="M152.277 119.942H139.159C138.257 119.942 137.475 119.187 137.475 118.317V95.4459C137.475 94.5752 138.257 93.8206 139.159 93.8206C140.122 93.8206 140.905 94.5752 140.905 95.4459V116.633H152.277C153.24 116.633 154.022 117.388 154.022 118.317C153.962 119.187 153.18 119.942 152.277 119.942ZM139.159 95.3878L139.099 118.317L139.159 118.375H152.277C152.338 118.375 152.338 118.317 152.338 118.317C152.338 118.259 152.277 118.259 152.277 118.259H139.28V95.4459C139.22 95.4459 139.22 95.3878 139.159 95.3878Z" fill="black"/>
<path d="M183.569 119.129H183.448C183.027 119.071 182.666 118.723 182.666 118.259V95.4459C182.666 94.9815 183.087 94.5752 183.569 94.5752H188.322C195.363 94.5752 201.079 100.09 201.079 106.881C201.079 113.673 195.363 119.129 188.322 119.129H183.569ZM188.262 117.446C194.28 117.446 199.214 112.744 199.214 106.939C199.214 101.077 194.28 96.3747 188.262 96.3166H184.411V117.446H188.262Z" fill="#C1B900"/>
<path d="M188.262 119.942H183.328C182.486 119.884 181.764 119.129 181.764 118.317V95.446C181.764 94.5172 182.546 93.8207 183.449 93.8207H188.202C195.664 93.8207 201.741 99.6835 201.741 106.939C201.802 114.079 195.724 119.942 188.262 119.942ZM183.449 118.375H188.202C194.761 118.375 200.117 113.267 200.117 106.939C200.117 100.612 194.761 95.446 188.202 95.446H183.449L183.388 95.504L183.449 118.375ZM188.262 118.201H183.569V95.504H188.262C194.761 95.5621 200.057 100.67 200.057 106.881C199.996 113.15 194.761 118.201 188.262 118.201ZM185.194 116.633H188.202C193.799 116.633 198.312 112.28 198.312 106.881C198.312 101.483 193.738 97.1294 188.202 97.0713H185.194V116.633ZM214.077 118.665C214.017 118.665 214.017 118.607 214.017 118.607L213.957 118.549L204.088 95.9104C203.908 95.504 204.148 94.9816 204.57 94.8075C204.991 94.5753 205.532 94.8075 205.713 95.2138L214.799 116.111L231.949 77.2771C232.069 76.8708 232.611 76.6386 233.092 76.8708C233.513 77.0449 233.754 77.5674 233.574 77.9737L215.702 118.375C215.642 118.665 215.461 118.955 215.22 119.071H215.16C215.04 119.129 214.92 119.129 214.859 119.129C214.739 119.129 214.619 119.129 214.559 119.071C214.498 119.071 214.498 119.013 214.498 119.013C214.258 119.013 214.137 118.897 214.077 118.665Z" fill="#C1B900"/>
<path d="M214.859 119.942C214.679 119.942 214.498 119.942 214.258 119.884C214.137 119.884 214.077 119.826 214.017 119.768C213.716 119.652 213.475 119.42 213.355 119.129C213.355 119.071 213.295 119.071 213.295 119.013L203.366 96.2586C203.005 95.4459 203.426 94.4591 204.269 94.1108C204.509 93.9947 204.75 93.9367 204.991 93.9367C205.653 93.9367 206.315 94.343 206.555 94.9235L214.92 114.079L231.227 76.9868C231.467 76.4063 232.069 76 232.731 76C232.972 76 233.213 76.058 233.453 76.1741C233.874 76.3483 234.175 76.6385 234.356 77.0449C234.536 77.4512 234.536 77.9156 234.356 78.3219L216.544 118.607C216.424 119.187 216.063 119.652 215.521 119.826L215.401 119.884H215.341C215.16 119.884 215.04 119.942 214.859 119.942ZM214.739 118.201L214.799 118.259V118.375H214.859V118.201L214.92 118.084L232.791 77.6834C232.791 77.6834 232.791 77.6253 232.731 77.6253H232.671L214.799 118.201L204.931 95.562H204.81C204.81 95.562 204.75 95.6201 204.75 95.6781L214.438 117.91H214.498L214.739 118.201Z" fill="#C1B900"/>
<path d="M231.406 95.4459C231.406 94.9815 231.827 94.5752 232.249 94.5752C232.73 94.5752 233.151 94.9815 233.151 95.4459V118.317C233.151 118.781 232.73 119.187 232.249 119.187C231.767 119.187 231.406 118.781 231.406 118.317V95.4459Z" fill="#C1B900"/>
<path d="M232.249 119.942C231.287 119.942 230.564 119.187 230.564 118.317V95.4459C230.564 94.5171 231.347 93.8206 232.249 93.8206C233.212 93.8206 233.994 94.5752 233.994 95.4459V118.317C233.994 119.187 233.212 119.942 232.249 119.942ZM232.249 95.3878L232.189 118.317L232.249 118.375C232.31 118.375 232.309 118.317 232.309 118.317V95.4459C232.37 95.4459 232.37 95.3878 232.249 95.3878Z" fill="#C1B900"/>
<path d="M240.373 114.543C240.674 114.195 241.155 114.137 241.516 114.427C243.382 115.878 246.571 117.62 249.88 117.562C252.107 117.562 254.093 116.923 255.477 115.937C256.921 114.95 257.643 113.673 257.643 112.28C257.643 110.886 256.981 109.842 255.597 108.913C254.213 108.042 252.167 107.345 249.7 106.939H249.64C247.293 106.533 245.187 105.894 243.622 104.849C242.058 103.863 241.035 102.411 241.035 100.554C241.035 98.6964 242.118 97.0711 243.683 95.9682C245.307 94.8653 247.413 94.1687 249.82 94.1687C253.19 94.1687 255.657 95.736 257.703 97.013C258.064 97.2452 258.184 97.7096 257.944 98.1159C257.703 98.4642 257.222 98.5803 256.861 98.3481C254.875 97.0711 252.709 95.736 249.88 95.736C247.835 95.736 245.969 96.3165 244.705 97.1872C243.442 98.1159 242.72 99.2769 242.72 100.554C242.78 101.773 243.321 102.702 244.585 103.514C245.849 104.327 247.774 104.966 250.061 105.372H250.121C252.648 105.836 254.935 106.533 256.62 107.636C258.305 108.681 259.448 110.306 259.448 112.28C259.448 114.253 258.305 115.995 256.56 117.214C254.875 118.433 252.588 119.129 250.001 119.129C246.089 119.071 242.72 117.214 240.614 115.588C240.132 115.356 240.132 114.892 240.373 114.543Z" fill="#C1B900"/>
<path d="M249.88 120C245.427 119.942 241.756 117.678 240.011 116.285H239.951C239.289 115.704 239.229 114.776 239.71 114.137C240.011 113.731 240.493 113.557 240.974 113.557C241.335 113.557 241.696 113.673 241.997 113.905C242.9 114.602 246.089 116.865 249.759 116.865H249.82C251.745 116.865 253.611 116.343 254.934 115.414C256.138 114.602 256.8 113.499 256.8 112.396C256.8 111.293 256.258 110.48 255.055 109.667C253.851 108.913 251.926 108.274 249.579 107.81H249.459C246.751 107.346 244.645 106.591 243.14 105.604C241.215 104.385 240.132 102.644 240.132 100.67C240.132 98.6385 241.215 96.7809 243.14 95.4458C244.946 94.1688 247.292 93.5303 249.759 93.5303C253.37 93.5303 256.078 95.2717 258.063 96.4907C258.846 97.0131 259.026 97.9419 258.545 98.6385C258.304 99.0448 257.763 99.335 257.221 99.335C256.92 99.335 256.559 99.2189 256.318 99.0448C254.513 97.8838 252.407 96.6068 249.82 96.6068C248.014 96.6068 246.33 97.0712 245.066 97.9419C243.983 98.6965 243.381 99.6833 243.381 100.67C243.381 101.599 243.862 102.295 244.946 102.992C246.029 103.689 247.714 104.269 250 104.733H250.12C253.009 105.256 255.235 106.01 256.92 107.113C258.906 108.39 260.109 110.306 260.109 112.396C260.109 114.485 258.966 116.517 256.92 117.968C254.934 119.245 252.467 120 249.88 120Z" fill="#C1B900"/>
<path d="M276.959 94.2271C283.759 94.2271 289.114 99.7996 289.114 106.707C289.054 113.557 283.759 119.187 276.959 119.187C270.099 119.187 264.684 113.615 264.684 106.707C264.684 99.7996 270.099 94.2271 276.959 94.2271ZM276.959 117.446C282.555 117.446 287.309 112.686 287.309 106.707C287.249 100.612 282.555 96.0265 276.959 96.0265C271.182 96.0265 266.429 100.67 266.429 106.707C266.429 112.686 271.182 117.446 276.959 117.446Z" fill="#C1B900"/>
<path d="M276.96 119.942C269.619 119.942 263.902 114.137 263.842 106.707C263.902 99.2772 269.619 93.4724 276.96 93.4724C284.241 93.4724 289.897 99.2772 289.957 106.707C289.897 114.137 284.181 119.942 276.96 119.942ZM276.96 95.0397C270.581 95.0397 265.527 100.148 265.466 106.707C265.527 113.209 270.581 118.375 276.96 118.375C283.278 118.375 288.272 113.267 288.333 106.707C288.272 100.148 283.278 95.0397 276.96 95.0397ZM276.96 118.201C270.702 118.201 265.647 113.034 265.647 106.649C265.647 100.206 270.641 95.1558 276.96 95.1558C283.098 95.1558 288.092 100.322 288.152 106.649C288.092 113.034 283.098 118.201 276.96 118.201ZM276.96 96.7811C271.544 96.7811 267.272 101.135 267.272 106.707C267.272 112.164 271.604 116.633 276.96 116.633C282.195 116.633 286.467 112.164 286.527 106.707C286.467 101.251 282.195 96.7811 276.96 96.7811Z" fill="#C1B900"/>
<path d="M309.334 113.615C309.334 111.815 308.372 110.712 307.288 109.9C306.145 109.145 304.821 108.739 304.34 108.681C304.22 108.623 304.22 108.623 304.159 108.623H297.961V118.317C297.961 118.781 297.54 119.187 297.059 119.187C296.577 119.187 296.156 118.781 296.156 118.317V95.4459C296.156 95.0396 296.517 94.6332 296.939 94.5752H304.22C308.191 94.5752 311.44 97.7098 311.44 101.599C311.44 104.385 309.756 106.823 307.228 107.926L307.589 108.1C309.274 109.029 311.019 110.828 311.019 113.557C311.019 115.008 311.14 115.879 311.32 116.401C311.44 116.807 311.621 116.982 311.681 116.982C312.102 116.923 312.524 117.156 312.644 117.562C312.764 118.026 312.524 118.491 312.042 118.665C311.982 118.665 311.802 118.723 311.621 118.723H311.561C311.079 118.723 310.297 118.375 309.936 117.62C309.635 116.807 309.334 115.704 309.334 113.615ZM304.28 96.3166H297.961V106.939H304.4C307.349 106.881 309.756 104.501 309.756 101.657C309.756 98.6385 307.288 96.3166 304.28 96.3166Z" fill="#C1B900"/>
<path d="M297.058 119.942C296.155 119.942 295.373 119.187 295.373 118.317V95.4459C295.373 94.6332 296.095 93.8786 296.938 93.8206H304.279C308.732 93.8206 312.342 97.3034 312.342 101.657C312.342 104.211 311.018 106.591 308.912 108.042C310.176 108.971 311.921 110.712 311.921 113.673C311.921 115.124 312.101 115.879 312.222 116.285C312.222 116.343 312.222 116.343 312.282 116.343C312.884 116.459 313.365 116.865 313.606 117.388V117.504C313.786 118.375 313.365 119.245 312.523 119.536L312.402 119.594H312.282C312.162 119.594 311.981 119.652 311.801 119.652H311.74C310.958 119.652 309.935 119.187 309.394 118.084C308.852 117.098 308.611 115.763 308.611 113.673C308.611 112.396 308.07 111.467 306.866 110.596C305.904 109.958 304.7 109.551 304.279 109.493L304.158 109.435C304.098 109.435 304.098 109.435 304.098 109.377H298.923V118.317C298.803 119.187 298.021 119.942 297.058 119.942ZM297.058 95.3878L296.998 118.317L297.058 118.375C297.118 118.375 297.118 118.317 297.118 118.317V107.81H304.098C304.279 107.81 304.459 107.868 304.52 107.926C305.181 108.042 306.565 108.507 307.709 109.261C309.333 110.422 310.116 111.873 310.116 113.615C310.116 115.414 310.296 116.517 310.717 117.272C311.018 117.794 311.5 117.968 311.62 117.968H311.861C311.861 117.968 311.921 117.91 311.921 117.852H311.801L311.44 117.91L311.139 117.62C311.078 117.562 310.778 117.272 310.597 116.691C310.356 115.995 310.236 114.95 310.236 113.615C310.236 110.77 308.19 109.319 307.227 108.855C307.167 108.855 307.167 108.797 307.107 108.797C306.987 108.739 306.926 108.681 306.746 108.623L305.542 107.868L306.866 107.288C309.093 106.243 310.597 104.037 310.597 101.657C310.597 98.2322 307.709 95.4459 304.158 95.4459H297.058V95.3878ZM304.098 107.694H297.178V95.5039H304.279C307.769 95.5039 310.597 98.2322 310.597 101.599C310.597 104.85 307.829 107.636 304.459 107.694H304.098ZM298.803 106.127H304.399C306.866 106.069 308.912 104.037 308.912 101.599C308.912 99.1029 306.806 97.0712 304.219 97.0712H298.743V106.127H298.803Z" fill="#C1B900"/>
<path d="M318.24 114.543C318.541 114.195 319.022 114.137 319.383 114.427C321.249 115.878 324.438 117.62 327.748 117.562C329.974 117.562 331.96 116.923 333.344 115.937C334.788 114.95 335.51 113.673 335.51 112.28C335.51 110.886 334.848 109.842 333.464 108.913C332.08 108.042 330.034 107.345 327.567 106.939H327.507C325.16 106.533 323.054 105.894 321.49 104.849C319.925 103.863 318.842 102.411 318.842 100.554C318.842 98.6964 319.925 97.0711 321.49 95.9682C323.114 94.8653 325.22 94.1687 327.627 94.1687C330.997 94.1687 333.464 95.736 335.51 97.013C335.871 97.2452 335.991 97.7096 335.751 98.1159C335.51 98.4642 335.029 98.5803 334.668 98.3481C332.682 97.0711 330.455 95.736 327.687 95.736C325.642 95.736 323.776 96.3165 322.512 97.1872C321.249 98.1159 320.527 99.2769 320.527 100.554C320.587 101.773 321.128 102.702 322.392 103.514C323.656 104.327 325.581 104.966 327.868 105.372H327.928C330.455 105.836 332.742 106.533 334.427 107.636C336.112 108.681 337.255 110.306 337.255 112.28C337.255 114.253 336.112 115.995 334.367 117.214C332.682 118.433 330.335 119.129 327.808 119.129C323.896 119.071 320.527 117.214 318.421 115.588C318.06 115.356 317.999 114.892 318.24 114.543Z" fill="#C1B900"/>
<path d="M327.747 120C323.294 119.942 319.623 117.678 317.878 116.285H317.818C317.156 115.704 317.096 114.776 317.578 114.137C317.878 113.731 318.36 113.557 318.841 113.557C319.202 113.557 319.563 113.673 319.864 113.905C320.767 114.602 323.956 116.865 327.627 116.865H327.687C329.612 116.865 331.478 116.343 332.802 115.414C334.005 114.602 334.667 113.499 334.667 112.396C334.667 111.293 334.125 110.48 332.922 109.667C331.718 108.913 329.793 108.274 327.446 107.81H327.326C324.618 107.346 322.512 106.591 321.007 105.604C319.082 104.385 317.999 102.644 317.999 100.67C317.999 98.6385 319.082 96.7809 321.007 95.4458C322.813 94.1688 325.16 93.5303 327.627 93.5303C331.237 93.5303 333.945 95.2717 335.931 96.4907C336.713 97.0131 336.893 97.9419 336.412 98.6385C336.171 99.0448 335.63 99.335 335.088 99.335C334.787 99.335 334.426 99.2189 334.186 99.0448C332.38 97.8838 330.274 96.6068 327.687 96.6068C325.882 96.6068 324.197 97.0712 322.993 97.9419C321.91 98.6965 321.308 99.6833 321.308 100.67C321.308 101.599 321.79 102.295 322.873 102.992C323.956 103.689 325.641 104.269 327.928 104.733H328.048C330.936 105.256 333.163 106.01 334.848 107.113C336.833 108.39 338.037 110.306 338.037 112.396C338.037 114.485 336.893 116.517 334.848 117.968C332.862 119.245 330.334 120 327.747 120Z" fill="#C1B900"/>
<path d="M80.6703 94.9817C80.7305 94.9817 80.7305 95.0398 80.7305 95.0398L80.7907 95.0978L90.6593 117.736C90.8398 118.143 90.5991 118.665 90.1779 118.839C89.7566 119.071 89.2151 118.839 89.0346 118.433L79.8279 97.4778L70.6814 118.375C70.5611 118.781 70.0195 119.013 69.5381 118.781C69.1169 118.607 68.8762 118.085 69.0567 117.678L78.9855 95.272C79.0456 94.9817 79.2262 94.6915 79.4669 94.5754H79.527C79.6474 94.5173 79.7677 94.5173 79.8279 94.5173C79.9483 94.5173 80.0686 94.5173 80.1288 94.5754C80.189 94.5754 80.189 94.6334 80.189 94.6334C80.4296 94.6334 80.6102 94.7495 80.6703 94.9817Z" fill="black"/>
<path d="M89.7569 119.71C89.095 119.71 88.4331 119.304 88.1924 118.723L79.8282 99.5674L71.4639 118.723C71.2232 119.304 70.6215 119.71 69.9596 119.71C69.7189 119.71 69.4782 119.652 69.2375 119.536C68.3951 119.187 67.9738 118.201 68.3349 117.388L78.1433 95.0397C78.2636 94.4592 78.6247 93.9948 79.1662 93.8207L79.2866 93.7626H79.3468C79.4671 93.7046 79.6476 93.7046 79.8282 93.7046C80.0087 93.7046 80.1892 93.7046 80.4299 93.7626C80.5502 93.7626 80.6104 93.8207 80.6706 93.8787C80.9715 93.9948 81.2122 94.227 81.3325 94.5173C81.3927 94.5753 81.3927 94.5753 81.3927 94.6333L81.4529 94.8075L91.3214 117.446C91.5019 117.852 91.5019 118.317 91.3214 118.723C91.1409 119.129 90.84 119.478 90.4188 119.594C90.2383 119.652 89.9976 119.71 89.7569 119.71ZM79.8883 95.446L89.7569 118.085H89.8772C89.8772 118.085 89.9374 118.026 89.8772 117.968L80.129 95.7943H80.0688L79.9485 95.5041L79.8883 95.446V95.3299H79.8282V95.5041L69.8994 118.026C69.8994 118.026 69.8994 118.085 69.9596 118.085H70.0198L79.8883 95.446Z" fill="black"/>
<path d="M167.443 94.9817C167.503 94.9817 167.503 95.0398 167.503 95.0398L167.563 95.0978L177.431 117.736C177.612 118.143 177.371 118.665 176.95 118.839C176.529 119.071 175.987 118.839 175.807 118.433L166.72 97.5358L157.574 118.433C157.454 118.839 156.912 119.071 156.431 118.839C156.009 118.665 155.769 118.143 155.949 117.736L165.818 95.272C165.878 94.9817 166.059 94.6915 166.299 94.5754H166.359C166.48 94.5173 166.6 94.5173 166.66 94.5173C166.781 94.5173 166.901 94.5173 166.961 94.5754C167.021 94.5754 167.021 94.6334 167.021 94.6334C167.202 94.6334 167.382 94.8076 167.443 94.9817Z" fill="#C1B900"/>
<path d="M176.528 119.71C175.866 119.71 175.204 119.304 174.964 118.723L166.599 99.5674L158.235 118.723C157.994 119.304 157.393 119.71 156.731 119.71C156.49 119.71 156.249 119.652 156.009 119.536C155.587 119.362 155.287 119.071 155.106 118.665C154.926 118.259 154.926 117.794 155.106 117.388L164.914 95.0397C165.035 94.4592 165.396 93.9948 165.937 93.8207L166.058 93.7626H166.118C166.238 93.7046 166.419 93.7046 166.599 93.7046C166.78 93.7046 166.96 93.7046 167.201 93.7626C167.321 93.7626 167.382 93.8207 167.442 93.8787C167.743 93.9948 167.983 94.227 168.104 94.5173L168.164 94.5753L168.224 94.7494L178.093 117.388C178.273 117.794 178.273 118.259 178.093 118.665C177.912 119.071 177.611 119.362 177.19 119.536C177.009 119.652 176.769 119.71 176.528 119.71ZM166.66 95.446L176.528 118.085H176.648L176.709 118.026L167.021 95.7943H166.84L166.72 95.5041L166.66 95.446V95.3299H166.599V95.5041L166.539 95.6202L156.671 118.085C156.671 118.085 156.671 118.143 156.731 118.143H156.791L166.66 95.446Z" fill="#C1B900"/>
</g>
<defs>
<clipPath id="clip0_438_71">
<rect width="315" height="44" fill="white" transform="translate(23 76)"/>
</clipPath>
</defs>
</svg>
