<svg id="icon" xmlns="http://www.w3.org/2000/svg" viewBox="0 0 80 80">
    <path d="M 40 3 C 37.250421 3 35 5.2504209 35 8 C 35 10.749579 37.250421 13 40 13 C 42.749579 13 45 10.749579 45 8 C 45 5.2504209 42.749579 3 40 3 z M 40 13 L 39.199219 13.402344 L 39.041016 14.283203 L 39.652344 14.9375 L 40 15 L 40.800781 14.597656 L 40.958984 13.716797 L 40.347656 13.0625 L 40 13 z M 40 5 C 41.668699 5 43 6.3313011 43 8 C 43 9.6686989 41.668699 11 40 11 C 38.331301 11 37 9.6686989 37 8 C 37 6.3313011 38.331301 5 40 5 z M 40 17 L 39.199219 17.402344 L 39.041016 18.283203 L 39.652344 18.9375 L 40 19 L 40.800781 18.597656 L 40.958984 17.716797 L 40.347656 17.0625 L 40 17 z M 12 18 C 9.2504209 18 7 20.250421 7 23 C 7 25.749579 9.2504209 28 12 28 C 14.749579 28 17 25.749579 17 23 C 17 20.250421 14.749579 18 12 18 z M 68 18 C 65.250421 18 63 20.250421 63 23 C 63 25.749579 65.250421 28 68 28 C 70.749579 28 73 25.749579 73 23 C 73 20.250421 70.749579 18 68 18 z M 12 20 C 13.668699 20 15 21.331301 15 23 C 15 24.668699 13.668699 26 12 26 C 10.331301 26 9 24.668699 9 23 C 9 21.331301 10.331301 20 12 20 z M 39.183594 20 C 35.974382 20 33.032528 21.625938 30.863281 23.189453 C 28.694035 24.752968 27.259766 26.326172 27.259766 26.326172 L 26.359375 27.316406 L 27.564453 27.900391 C 27.564453 27.900391 27.84526 28.02384 28.220703 28.490234 C 28.596146 28.956629 29 29.704449 29 31 C 29 32.645049 29.421686 34.294706 29.734375 35.326172 C 29.085452 35.709911 28.632812 36.396583 28.632812 37.199219 C 28.632812 37.731753 28.775468 38.09511 28.884766 38.462891 C 28.939416 38.646781 28.99239 38.815482 29.025391 38.935547 C 29.058391 39.055612 29.054688 39.184664 29.054688 39 C 29.054688 40.117243 30.00915 41 31.105469 41 L 31.234375 41 C 31.598212 43.25387 32.770116 45.23811 34.457031 46.611328 C 33.625531 46.848884 31.67259 47.430982 29.296875 48.523438 C 27.819637 49.202734 26.325011 50.025508 25.138672 51.03125 C 23.952333 52.036992 23 53.293897 23 54.832031 L 23 60 L 25 60 L 56 60 L 57 60 L 57 54.832031 C 57 53.293897 56.047667 52.036992 54.861328 51.03125 C 53.674989 50.025508 52.180363 49.202734 50.703125 48.523438 C 48.294268 47.415743 46.312044 46.83064 45.544922 46.613281 C 47.263685 45.220672 48.447109 43.193301 48.789062 40.892578 C 49.754543 40.750332 50.578125 40.01943 50.578125 39 C 50.578125 39.184661 50.574422 39.055607 50.607422 38.935547 C 50.640422 38.815482 50.693402 38.646781 50.748047 38.462891 C 50.857342 38.095107 51 37.731753 51 37.199219 C 51 36.491134 50.638694 35.905775 50.103516 35.53125 C 50.18618 35.119749 50.295219 34.604786 50.486328 33.472656 C 50.739636 31.972059 51 30.230895 51 29 C 51 26.609297 49.986138 24.8411 48.673828 23.773438 C 47.502963 22.820851 46.175368 22.439274 45.007812 22.355469 C 44.808864 22.087556 44.662802 21.794385 43.951172 21.3125 C 42.955551 20.638309 41.389528 20 39.183594 20 z M 68 20 C 69.668699 20 71 21.331301 71 23 C 71 24.668699 69.668699 26 68 26 C 66.331301 26 65 24.668699 65 23 C 65 21.331301 66.331301 20 68 20 z M 39.183594 22 C 41.012659 22 42.141449 22.502441 42.830078 22.96875 C 43.518707 23.435059 43.708984 23.791016 43.708984 23.791016 L 44 24.28125 L 44.570312 24.28125 C 45.337243 24.28125 46.514419 24.593881 47.412109 25.324219 C 48.309799 26.054557 49 27.144703 49 29 C 49 29.491441 48.927278 30.223749 48.826172 31.019531 C 48.513974 29.543489 47.822638 28.445394 47.123047 27.712891 C 46.179142 26.724579 45.164064 26.322266 45.164062 26.322266 L 44.53125 26.074219 L 44.068359 26.574219 C 44.068359 26.574219 43.654067 27.034302 42.650391 27.566406 C 41.646714 28.09851 40.117058 28.644531 38 28.644531 C 36.758747 28.644531 35.133755 29.000981 33.6875 29.931641 C 32.629307 30.612584 31.686694 31.673242 31.253906 33.068359 C 31.114728 32.378834 31 31.66291 31 31 C 31 29.264551 30.403854 28.012184 29.779297 27.236328 C 29.652929 27.079347 29.635136 27.12928 29.507812 27.005859 C 29.947437 26.554931 30.503129 25.911961 32.03125 24.810547 C 34.024253 23.374062 36.673805 22 39.183594 22 z M 17.634766 24.837891 L 16.833984 25.238281 L 16.675781 26.121094 L 17.289062 26.775391 L 17.634766 26.837891 L 18.435547 26.435547 L 18.59375 25.552734 L 17.982422 24.898438 L 17.634766 24.837891 z M 62.365234 24.837891 L 61.564453 25.238281 L 61.40625 26.121094 L 62.017578 26.775391 L 62.365234 26.837891 L 63.166016 26.435547 L 63.324219 25.552734 L 62.710938 24.898438 L 62.365234 24.837891 z M 21 27 L 20.199219 27.402344 L 20.041016 28.283203 L 20.652344 28.9375 L 21 29 L 21.800781 28.597656 L 21.958984 27.716797 L 21.347656 27.0625 L 21 27 z M 59 27 L 58.199219 27.402344 L 58.041016 28.283203 L 58.652344 28.9375 L 59 29 L 59.800781 28.597656 L 59.958984 27.716797 L 59.347656 27.0625 L 59 27 z M 44.806641 28.457031 C 45.019266 28.565254 45.217563 28.61193 45.677734 29.09375 C 46.33333 29.780188 47 30.857574 47 32.703125 L 47 37.322266 L 48.183594 37.099609 C 48.354873 37.067499 48.513334 37.040194 48.628906 37.021484 C 48.744478 37.002784 48.892956 37 48.738281 37 C 48.921829 37 49 37.103492 49 37.199219 C 49 37.151689 48.93178 37.550359 48.830078 37.892578 C 48.779228 38.063688 48.725809 38.236487 48.679688 38.404297 C 48.633567 38.572107 48.578125 38.676839 48.578125 39 C 48.578125 38.97871 48.591116 39 48.523438 39 L 47.027344 39 L 46.980469 39.951172 C 46.820216 43.228031 44.399384 45.90132 41.234375 46.464844 L 40.951172 46.515625 L 40.738281 46.708984 C 40.530582 46.897298 40.28984 47 40 47 C 39.71016 47 39.469416 46.897297 39.261719 46.708984 L 39.048828 46.515625 L 38.765625 46.464844 C 35.600616 45.901319 33.179784 43.228031 33.019531 39.951172 L 32.972656 39 L 31.105469 39 C 31.037789 39 31.054687 38.98476 31.054688 39 C 31.054688 38.676839 30.999248 38.572107 30.953125 38.404297 C 30.907005 38.236487 30.853585 38.063688 30.802734 37.892578 C 30.701032 37.550359 30.632813 37.151684 30.632812 37.199219 C 30.632812 37.107599 30.703901 37.024042 30.861328 37.009766 L 30.863281 37.009766 C 30.927424 37.016361 31.040318 37.026451 31.134766 37.042969 C 31.324995 37.076189 31.569827 37.123679 31.8125 37.169922 L 33 37.396484 L 33 34.734375 C 33 33.191314 33.730536 32.281871 34.769531 31.613281 C 35.808526 30.944691 37.182253 30.644531 38 30.644531 C 40.464942 30.644531 42.336567 29.99738 43.587891 29.333984 C 44.37173 28.918428 44.493328 28.73063 44.806641 28.457031 z M 37 37 C 36.449 37 36 37.449 36 38 C 36 38.551 36.449 39 37 39 C 37.551 39 38 38.551 38 38 C 38 37.449 37.551 37 37 37 z M 43 37 C 42.449 37 42 37.449 42 38 C 42 38.551 42.449 39 43 39 C 43.551 39 44 38.551 44 38 C 44 37.449 43.551 37 43 37 z M 37 48.041016 C 37.378824 48.177041 37.767018 48.295165 38.169922 48.378906 C 38.680043 48.755844 39.310333 49 40 49 C 40.689667 49 41.319957 48.755844 41.830078 48.378906 C 42.232404 48.295296 42.621398 48.180863 43 48.044922 L 43 49.654297 C 42.859132 49.894704 42.151994 51 40 51 C 37.848006 51 37.140868 49.894704 37 49.654297 L 37 48.041016 z M 35 48.535156 L 35 50.269531 L 35.132812 50.501953 C 35.132812 50.501953 36.678917 53 40 53 C 43.321083 53 44.867187 50.501953 44.867188 50.501953 L 45 50.269531 L 45 48.535156 C 45.796566 48.764512 47.651196 49.32279 49.867188 50.341797 C 51.247447 50.9765 52.611573 51.745507 53.568359 52.556641 C 54.525145 53.367774 55 54.153166 55 54.832031 L 55 58 L 25 58 L 25 54.832031 C 25 54.153166 25.474855 53.367774 26.431641 52.556641 C 27.388427 51.745507 28.752551 50.9765 30.132812 50.341797 C 32.348805 49.32279 34.203434 48.764512 35 48.535156 z M 21 52 L 20.199219 52.402344 L 20.041016 53.283203 L 20.652344 53.9375 L 21 54 L 21.800781 53.597656 L 21.958984 52.716797 L 21.347656 52.0625 L 21 52 z M 59.056641 52 L 58.255859 52.402344 L 58.097656 53.283203 L 58.708984 53.9375 L 59.056641 54 L 59.857422 53.597656 L 60.015625 52.716797 L 59.402344 52.0625 L 59.056641 52 z M 12 54 C 9.2504209 54 7 56.250421 7 59 C 7 61.749579 9.2504209 64 12 64 C 14.749579 64 17 61.749579 17 59 C 17 56.250421 14.749579 54 12 54 z M 68 54 C 65.250421 54 63 56.250421 63 59 C 63 61.749579 65.250421 64 68 64 C 70.749579 64 73 61.749579 73 59 C 73 56.250421 70.749579 54 68 54 z M 17.634766 54.162109 L 16.833984 54.564453 L 16.675781 55.447266 L 17.289062 56.101562 L 17.634766 56.162109 L 18.435547 55.761719 L 18.59375 54.878906 L 17.982422 54.224609 L 17.634766 54.162109 z M 62.419922 54.162109 L 61.619141 54.564453 L 61.460938 55.447266 L 62.074219 56.101562 L 62.419922 56.162109 L 63.222656 55.761719 L 63.378906 54.878906 L 62.767578 54.224609 L 62.419922 54.162109 z M 12 56 C 13.668699 56 15 57.331301 15 59 C 15 60.668699 13.668699 62 12 62 C 10.331301 62 9 60.668699 9 59 C 9 57.331301 10.331301 56 12 56 z M 68 56 C 69.668699 56 71 57.331301 71 59 C 71 60.668699 69.668699 62 68 62 C 66.331301 62 65 60.668699 65 59 C 65 57.331301 66.331301 56 68 56 z M 40 61 L 39.199219 61.402344 L 39.041016 62.283203 L 39.652344 62.9375 L 40 63 L 40.800781 62.597656 L 40.958984 61.716797 L 40.347656 61.0625 L 40 61 z M 40 65 L 39.199219 65.402344 L 39.041016 66.283203 L 39.652344 66.9375 L 40 67 L 40.800781 66.597656 L 40.958984 65.716797 L 40.347656 65.0625 L 40 65 z M 40 67 C 37.250421 67 35 69.250421 35 72 C 35 74.749579 37.250421 77 40 77 C 42.749579 77 45 74.749579 45 72 C 45 69.250421 42.749579 67 40 67 z M 40 69 C 41.668699 69 43 70.331301 43 72 C 43 73.668699 41.668699 75 40 75 C 38.331301 75 37 73.668699 37 72 C 37 70.331301 38.331301 69 40 69 z"></path>
</svg>