<svg id="icon" xmlns:x="http://ns.adobe.com/Extensibility/1.0/" xmlns:i="http://ns.adobe.com/AdobeIllustrator/10.0/" xmlns:graph="http://ns.adobe.com/Graphs/1.0/" xmlns="http://www.w3.org/2000/svg" xmlns:xlink="http://www.w3.org/1999/xlink" version="1.1" x="0px" y="0px" viewBox="0 0 100 100" enable-background="new 0 0 100 100" xml:space="preserve" style="max-width:100%" height="100%"><sfw xmlns="http://ns.adobe.com/SaveForWeb/1.0/"><slicesourcebounds height="55.246" width="72.951" bottomleftorigin="true" x="261.084" y="392.877"></slicesourcebounds></sfw><path d="M60.829,53.148c-2.608-1.451-5.512-2.434-8.648-2.562c-0.346-0.015-0.688-0.021-1.023-0.021   c-1.701,0-3.278,0.182-4.819,0.504c-1.542,0.323-3.044,0.783-4.617,1.338l-0.001,0.001c-1.001,0.354-1.978,0.875-2.911,1.463   c-1.397,0.883-2.695,1.923-3.736,2.82c-0.52,0.448-0.974,0.861-1.339,1.198c-0.364,0.336-0.645,0.603-0.789,0.733   c-0.272,0.248-0.425,0.606-0.416,0.975c0.01,0.368,0.181,0.718,0.466,0.951c0.97,0.793,1.837,1.698,2.706,2.565   c0.872,0.865,1.74,1.704,2.798,2.315c0.012,0.007,0.026,0.011,0.039,0.018c0.04,0.021,0.082,0.038,0.124,0.055   c0.037,0.016,0.074,0.03,0.111,0.042c0.039,0.012,0.078,0.019,0.118,0.025c0.042,0.009,0.083,0.018,0.125,0.021   c0.04,0.004,0.079,0.002,0.119,0.002c0.042,0,0.083,0.001,0.124-0.003c0.041-0.004,0.08-0.013,0.12-0.021   c0.041-0.009,0.082-0.016,0.122-0.028c0.037-0.011,0.072-0.026,0.109-0.04c0.042-0.018,0.084-0.035,0.125-0.058   c0.013-0.007,0.026-0.01,0.038-0.017c1.945-1.132,3.604-2.235,5.218-3.022c0.808-0.395,1.603-0.712,2.425-0.933   c0.822-0.22,1.672-0.344,2.607-0.344c0.511,0,1.047,0.037,1.617,0.119c1.781,0.256,3.462,0.85,5.05,1.698   c1.587,0.85,3.077,1.955,4.456,3.221c0.274,0.252,0.647,0.371,1.018,0.325c0.369-0.046,0.702-0.254,0.906-0.565   c1.504-2.293,2.943-4.021,4.653-5.487c0.269-0.23,0.429-0.56,0.442-0.913c0.016-0.354-0.117-0.694-0.365-0.946   C65.767,56.522,63.439,54.601,60.829,53.148z M61.761,63.329c-1.203-0.995-2.492-1.889-3.873-2.628   c-1.811-0.969-3.779-1.672-5.889-1.974c-0.686-0.099-1.344-0.146-1.979-0.146c-1.163,0-2.248,0.158-3.265,0.432   c-1.528,0.409-2.901,1.069-4.233,1.815c-1.114,0.626-2.208,1.313-3.352,1.995c-0.518-0.391-1.073-0.911-1.673-1.513   c-0.55-0.547-1.146-1.156-1.802-1.771c0.689-0.629,1.62-1.449,2.66-2.247c0.678-0.52,1.4-1.028,2.121-1.463   c0.72-0.435,1.438-0.795,2.092-1.025h-0.001c1.511-0.532,2.903-0.956,4.292-1.247c1.39-0.29,2.776-0.449,4.298-0.45   c0.301,0,0.606,0.007,0.918,0.02c2.668,0.11,5.178,0.943,7.518,2.244c1.959,1.089,3.786,2.508,5.449,4.073   C63.864,60.587,62.796,61.865,61.761,63.329z"></path><path d="M76.03,47.191c-1.289-1.062-3.973-3.275-4.756-3.933l-0.002-0.001c-2.402-2.012-4.885-3.375-7.453-4.329   c-2.57-0.956-5.221-1.512-7.998-1.949l0,0c-1.721-0.271-3.69-0.416-5.65-0.416c-1.689,0-3.368,0.106-4.875,0.342l-0.001,0.001   c-2.875,0.452-5.803,1.021-8.84,2.307h0c-1.827,0.771-3.745,1.727-5.819,3.196c-2.076,1.47-4.306,3.445-6.81,6.251   c-0.009,0.01-0.015,0.021-0.023,0.031c-0.03,0.035-0.055,0.073-0.081,0.111c-0.022,0.032-0.044,0.063-0.062,0.098   c-0.02,0.036-0.035,0.075-0.052,0.114c-0.016,0.037-0.033,0.074-0.045,0.112c-0.012,0.039-0.02,0.078-0.028,0.118   c-0.008,0.041-0.018,0.082-0.022,0.124c-0.004,0.038-0.004,0.076-0.004,0.114c-0.001,0.047-0.001,0.093,0.003,0.139   c0.001,0.014-0.001,0.025,0,0.039c0.005,0.035,0.015,0.064,0.02,0.098c0.006,0.027,0.01,0.056,0.017,0.083   c0.037,0.171,0.084,0.329,0.143,0.471c0.152,0.357,0.351,0.66,0.578,0.966c0.398,0.529,0.894,1.053,1.427,1.57   c0.798,0.772,1.675,1.517,2.358,2.074c0.683,0.558,1.171,0.927,1.181,0.935c0.487,0.368,1.166,0.338,1.619-0.071   c0,0,0.04-0.036,0.114-0.103c0.259-0.232,0.928-0.833,1.68-1.496c0.751-0.662,1.591-1.391,2.171-1.863l0.001-0.001   c0.657-0.539,1.687-1.185,2.898-1.813c1.819-0.948,4.055-1.878,6.172-2.559c1.059-0.341,2.088-0.619,3.015-0.81   c0.925-0.191,1.752-0.292,2.373-0.291h0.055l0,0c2.48,0.025,4.587,0.244,6.447,0.637c2.789,0.591,5.033,1.563,7.213,2.923   c2.176,1.359,4.286,3.123,6.713,5.269c0.497,0.439,1.25,0.423,1.727-0.039c0.162-0.156,0.354-0.355,0.582-0.599   c0.793-0.843,2.002-2.197,3.023-3.352c1.02-1.151,1.844-2.097,1.846-2.098c0.227-0.261,0.338-0.598,0.309-0.941   c-0.027-0.344-0.192-0.658-0.459-0.878C76.735,47.772,76.46,47.546,76.03,47.191z M70.702,52.717   c-0.08,0.088-0.155,0.168-0.23,0.25c-1.294-1.127-2.535-2.166-3.785-3.101c-2.312-1.73-4.678-3.12-7.457-4.068   c-2.778-0.949-5.947-1.452-9.868-1.491h0.001H49.28c-1.168,0.002-2.503,0.227-3.948,0.585c-2.161,0.54-4.545,1.395-6.712,2.361   c-1.083,0.484-2.11,0.997-3.027,1.517c-0.918,0.522-1.725,1.048-2.382,1.585l0.001-0.001c-0.722,0.589-1.728,1.468-2.564,2.208   c-0.255,0.226-0.49,0.435-0.699,0.621c-0.486-0.392-1.128-0.922-1.76-1.49c-0.598-0.536-1.186-1.108-1.601-1.592   c-0.114-0.132-0.213-0.256-0.296-0.368c2.163-2.35,4.068-4.011,5.813-5.247c1.899-1.343,3.616-2.2,5.339-2.93h0.001   c2.741-1.16,5.428-1.693,8.245-2.137h-0.001c1.337-0.209,2.901-0.312,4.481-0.312c1.833,0,3.691,0.138,5.253,0.386h0.001   c2.698,0.425,5.174,0.951,7.507,1.819c2.333,0.87,4.53,2.075,6.708,3.896v-0.001c0.537,0.451,1.902,1.58,3.14,2.601   c0.481,0.397,0.942,0.777,1.327,1.094c-0.512,0.581-1.189,1.35-1.873,2.115C71.698,51.618,71.161,52.216,70.702,52.717z"></path><path d="M86.112,37.996c-0.005-0.004-1.93-1.729-4.215-3.68c-1.143-0.976-2.375-2.008-3.508-2.912   c-0.567-0.453-1.109-0.874-1.605-1.242c-0.498-0.369-0.947-0.685-1.348-0.934l0,0c-3.172-1.969-6.998-3.648-10.973-4.858   c-3.975-1.208-8.094-1.946-11.865-1.989h-0.001c-0.253-0.002-0.507-0.004-0.763-0.004c-3.889,0-7.93,0.317-11.808,1.062   c-3.877,0.745-7.594,1.915-10.831,3.647h0c-2.344,1.255-4.583,2.474-6.736,3.854c-2.152,1.381-4.22,2.927-6.201,4.828l0.001-0.002   c-0.202,0.193-0.44,0.437-0.695,0.702c-0.76,0.794-1.649,1.775-1.653,1.78c-0.443,0.489-0.438,1.239,0.012,1.722   c0.001,0.001,1.072,1.149,2.271,2.418c0.6,0.635,1.231,1.301,1.779,1.869c0.274,0.285,0.527,0.546,0.746,0.768   c0.22,0.223,0.403,0.405,0.55,0.545c0.012,0.011,0.025,0.018,0.038,0.028c0.035,0.031,0.072,0.059,0.11,0.085   c0.032,0.022,0.063,0.044,0.097,0.063c0.036,0.021,0.074,0.038,0.112,0.056c0.038,0.017,0.075,0.033,0.114,0.046   c0.038,0.013,0.077,0.021,0.116,0.031c0.04,0.009,0.08,0.019,0.12,0.023c0.041,0.006,0.082,0.008,0.124,0.009   c0.04,0.001,0.079,0.003,0.119,0c0.041-0.002,0.082-0.009,0.123-0.015c0.041-0.007,0.082-0.014,0.122-0.024   c0.037-0.01,0.074-0.022,0.111-0.036c0.043-0.016,0.086-0.032,0.127-0.053c0.015-0.008,0.03-0.011,0.044-0.019   c1.142-0.614,2.008-1.272,2.738-1.858c0.732-0.588,1.326-1.089,1.953-1.471h-0.001c0.4-0.244,0.8-0.539,1.209-0.86   c0.612-0.48,1.243-1.021,1.835-1.518c0.589-0.493,1.147-0.944,1.553-1.216h0c1.245-0.837,2.763-1.744,4.321-2.555   s3.163-1.525,4.562-1.982c3.031-0.994,7.049-1.683,11.67-1.683c1.766,0,3.619,0.101,5.542,0.32h-0.001   c2.604,0.302,4.359,0.77,6.072,1.448c1.712,0.678,3.408,1.595,5.76,2.78l-0.001-0.001c0.981,0.494,2.483,1.396,3.932,2.353   c0.726,0.479,1.44,0.973,2.079,1.438c0.638,0.464,1.201,0.902,1.608,1.256l-0.001-0.001c0.785,0.681,1.398,1.263,2.025,1.861   s1.269,1.214,2.082,1.932c0.486,0.43,1.213,0.425,1.694-0.01c0.651-0.59,1.065-1.225,1.424-1.761   c0.358-0.541,0.66-0.987,1.052-1.362l0.001-0.001c1.845-1.775,2.522-3.317,2.573-3.434C86.647,38.942,86.519,38.36,86.112,37.996z    M82.097,41.043c-0.643,0.618-1.056,1.261-1.409,1.789c-0.095,0.144-0.185,0.276-0.272,0.402c-0.363-0.338-0.705-0.665-1.053-0.996   c-0.63-0.601-1.282-1.221-2.114-1.942l-0.001-0.001c-0.492-0.425-1.099-0.896-1.775-1.389c-1.015-0.739-2.184-1.526-3.308-2.235   c-1.126-0.71-2.2-1.339-3.056-1.771h-0.001c-2.312-1.163-4.057-2.114-5.964-2.873c-1.906-0.758-3.947-1.294-6.721-1.61h-0.001   c-2.021-0.231-3.97-0.337-5.831-0.337c-4.875,0.001-9.135,0.72-12.462,1.809c-1.589,0.521-3.295,1.286-4.944,2.144   c-1.648,0.857-3.235,1.805-4.566,2.699c-0.378,0.254-0.765,0.555-1.165,0.879c-0.598,0.485-1.22,1.023-1.807,1.506   c-0.583,0.482-1.139,0.911-1.534,1.15h-0.001c-0.85,0.521-1.525,1.104-2.216,1.656c-0.481,0.386-0.974,0.763-1.547,1.129   c-0.737-0.755-1.818-1.895-2.742-2.875c-0.376-0.399-0.726-0.771-1.017-1.081c0.083-0.09,0.169-0.183,0.257-0.277   c0.215-0.23,0.44-0.468,0.646-0.682c0.206-0.213,0.394-0.403,0.526-0.529l0.001-0.002c1.842-1.766,3.764-3.207,5.814-4.522   c2.05-1.315,4.229-2.504,6.563-3.753l0,0c2.939-1.575,6.422-2.686,10.11-3.393c3.688-0.708,7.578-1.017,11.328-1.017   c0.246,0,0.491,0.001,0.735,0.004h-0.001c3.459,0.037,7.375,0.729,11.154,1.879c3.781,1.148,7.43,2.757,10.37,4.586h-0.001   c0.306,0.189,0.713,0.473,1.176,0.815c1.625,1.205,3.928,3.138,5.805,4.756c0.94,0.811,1.776,1.544,2.377,2.074   c0.069,0.061,0.135,0.119,0.197,0.174C83.331,39.685,82.831,40.336,82.097,41.043z"></path><polygon points="28.618,36.731 28.619,36.731 28.619,36.731  "></polygon><polygon points="82.096,41.044 82.097,41.043 82.097,41.043  "></polygon><path d="M56.827,69.354c-0.314-1.16-0.891-2.341-1.877-3.268c-0.492-0.461-1.087-0.851-1.772-1.117   c-0.686-0.269-1.457-0.412-2.293-0.411c-0.14,0-0.281,0.006-0.425,0.014h-0.018c-0.008,0-0.018,0.002-0.025,0.002   c-0.014,0-0.027,0-0.041,0.001c-0.003,0-0.006,0.001-0.008,0.002c-0.783,0.012-1.542,0.189-2.25,0.479   c-1.095,0.452-2.079,1.16-2.833,2.038c-0.376,0.44-0.696,0.925-0.928,1.455c-0.231,0.529-0.375,1.107-0.376,1.715v0.012   c0.003,0.874,0.095,1.753,0.321,2.602c0.17,0.636,0.417,1.256,0.765,1.832c0.519,0.863,1.281,1.624,2.271,2.136   c0.989,0.514,2.181,0.779,3.556,0.778c0.894,0,1.733-0.183,2.481-0.501c1.123-0.479,2.037-1.253,2.684-2.171   s1.036-1.988,1.066-3.095v0.001c0.002-0.074,0.004-0.149,0.004-0.225C57.127,70.907,57.035,70.131,56.827,69.354z M54.581,71.789   L54.581,71.789c-0.014,0.716-0.383,1.57-1.041,2.213c-0.327,0.321-0.72,0.591-1.162,0.779c-0.443,0.188-0.938,0.297-1.485,0.298   c-0.938-0.001-1.647-0.158-2.188-0.398c-0.406-0.181-0.724-0.407-0.992-0.679c-0.399-0.405-0.692-0.927-0.892-1.565   c-0.199-0.636-0.295-1.383-0.297-2.169v-0.003v-0.001c-0.001-0.263,0.088-0.598,0.298-0.963c0.31-0.548,0.889-1.13,1.565-1.538   c0.675-0.415,1.435-0.649,2.054-0.646h0.012c0.016,0,0.029-0.004,0.045-0.005s0.029,0.003,0.045,0.002   c0.117-0.008,0.231-0.012,0.341-0.012c0.733,0.002,1.276,0.159,1.723,0.402c0.334,0.184,0.616,0.422,0.864,0.713   c0.369,0.434,0.654,0.99,0.84,1.595c0.186,0.604,0.272,1.249,0.271,1.82C54.583,71.686,54.583,71.737,54.581,71.789z"></path></svg>